<?xml version="1.0" encoding="UTF-8" standalone="no"?><svg xmlns="http://www.w3.org/2000/svg" xmlns:xlink="http://www.w3.org/1999/xlink" contentScriptType="application/ecmascript" contentStyleType="text/css" height="600px" preserveAspectRatio="none" style="width:2697px;height:600px;" version="1.1" viewBox="0 0 2697 600" width="2697px" zoomAndPan="magnify"><defs><filter height="300%" id="f1ao1c5osqnzqx" width="300%" x="-1" y="-1"><feGaussianBlur result="blurOut" stdDeviation="2.0"/><feColorMatrix in="blurOut" result="blurOut2" type="matrix" values="0 0 0 0 0 0 0 0 0 0 0 0 0 0 0 0 0 0 .4 0"/><feOffset dx="4.0" dy="4.0" in="blurOut2" result="blurOut3"/><feBlend in="SourceGraphic" in2="blurOut3" mode="normal"/></filter></defs><g><!--MD5=[745b6c9314b84431948b1a1ba79b9657]
cluster com.app.robot.dialogs--><polygon fill="#FFFFFF" filter="url(#f1ao1c5osqnzqx)" points="39,290.0195,255,290.0195,262,322.6211,309,322.6211,309,424.0195,39,424.0195,39,290.0195" style="stroke:#000000;stroke-width:1.5;"/><line style="stroke:#000000;stroke-width:1.5;" x1="39" x2="262" y1="322.6211" y2="322.6211"/><text fill="#000000" font-family="Segoe UI" font-size="20" font-weight="bold" lengthAdjust="spacing" textLength="210" x="43" y="313.6016">com.app.robot.dialogs</text><!--MD5=[dd123a373ec1887f1162f3944fbba751]
cluster com.app.robot.fragments--><polygon fill="#FFFFFF" filter="url(#f1ao1c5osqnzqx)" points="1261,7.5195,1506,7.5195,1513,40.1211,2106,40.1211,2106,593.5195,1261,593.5195,1261,7.5195" style="stroke:#000000;stroke-width:1.5;"/><line style="stroke:#000000;stroke-width:1.5;" x1="1261" x2="1513" y1="40.1211" y2="40.1211"/><text fill="#000000" font-family="Segoe UI" font-size="20" font-weight="bold" lengthAdjust="spacing" textLength="239" x="1265" y="31.1016">com.app.robot.fragments</text><!--MD5=[502031eed3d8bc3029a3c257cc58a83d]
cluster com.app.robot.main--><polygon fill="#FFFFFF" filter="url(#f1ao1c5osqnzqx)" points="598,7.5195,793,7.5195,800,40.1211,916,40.1211,916,513.5195,598,513.5195,598,7.5195" style="stroke:#000000;stroke-width:1.5;"/><line style="stroke:#000000;stroke-width:1.5;" x1="598" x2="800" y1="40.1211" y2="40.1211"/><text fill="#000000" font-family="Segoe UI" font-size="20" font-weight="bold" lengthAdjust="spacing" textLength="189" x="602" y="31.1016">com.app.robot.main</text><!--MD5=[64dba2566c668b3a9c44a6d9624e2721]
cluster com.app.robot.adapters--><polygon fill="#FFFFFF" filter="url(#f1ao1c5osqnzqx)" points="2404,270.5195,2634,270.5195,2641,303.1211,2662,303.1211,2662,443.5195,2404,443.5195,2404,270.5195" style="stroke:#000000;stroke-width:1.5;"/><line style="stroke:#000000;stroke-width:1.5;" x1="2404" x2="2641" y1="303.1211" y2="303.1211"/><text fill="#000000" font-family="Segoe UI" font-size="20" font-weight="bold" lengthAdjust="spacing" textLength="224" x="2408" y="294.1016">com.app.robot.adapters</text><!--MD5=[49d50b556900341b3871ea7388b67686]
cluster com.google.firebase.database--><polygon fill="#FFFFFF" filter="url(#f1ao1c5osqnzqx)" points="940,7.5195,1227,7.5195,1234,40.1211,1237,40.1211,1237,121.5195,940,121.5195,940,7.5195" style="stroke:#000000;stroke-width:1.5;"/><line style="stroke:#000000;stroke-width:1.5;" x1="940" x2="1234" y1="40.1211" y2="40.1211"/><text fill="#000000" font-family="Segoe UI" font-size="20" font-weight="bold" lengthAdjust="spacing" textLength="281" x="944" y="31.1016">com.google.firebase.database</text><!--MD5=[5a11439e6a9c928fb0d5ec822813d7c6]
cluster androidx.appcompat.app--><polygon fill="#FFFFFF" filter="url(#f1ao1c5osqnzqx)" points="16,7.5195,257,7.5195,264,40.1211,574,40.1211,574,121.5195,16,121.5195,16,7.5195" style="stroke:#000000;stroke-width:1.5;"/><line style="stroke:#000000;stroke-width:1.5;" x1="16" x2="264" y1="40.1211" y2="40.1211"/><text fill="#000000" font-family="Segoe UI" font-size="20" font-weight="bold" lengthAdjust="spacing" textLength="235" x="20" y="31.1016">androidx.appcompat.app</text><!--MD5=[fac4d499f07f8f5f0b9be42f7bfd5bcd]
cluster androidx.viewpager2.adapter--><polygon fill="#FFFFFF" filter="url(#f1ao1c5osqnzqx)" points="2387,7.5195,2670,7.5195,2677,40.1211,2680,40.1211,2680,121.5195,2387,121.5195,2387,7.5195" style="stroke:#000000;stroke-width:1.5;"/><line style="stroke:#000000;stroke-width:1.5;" x1="2387" x2="2677" y1="40.1211" y2="40.1211"/><text fill="#000000" font-family="Segoe UI" font-size="20" font-weight="bold" lengthAdjust="spacing" textLength="277" x="2391" y="31.1016">androidx.viewpager2.adapter</text><!--MD5=[9766f90424e1828585cf1d2dc254d514]
cluster androidx.fragment.app--><polygon fill="#FFFFFF" filter="url(#f1ao1c5osqnzqx)" points="2130,7.5195,2353,7.5195,2360,40.1211,2363,40.1211,2363,121.5195,2130,121.5195,2130,7.5195" style="stroke:#000000;stroke-width:1.5;"/><line style="stroke:#000000;stroke-width:1.5;" x1="2130" x2="2360" y1="40.1211" y2="40.1211"/><text fill="#000000" font-family="Segoe UI" font-size="20" font-weight="bold" lengthAdjust="spacing" textLength="217" x="2134" y="31.1016">androidx.fragment.app</text><!--MD5=[46e792cfa3002f10e7f7a53dfda236d2]
class com.app.robot.dialogs.HitDialog--><rect codeLine="5" fill="#FEFECE" filter="url(#f1ao1c5osqnzqx)" height="72.5527" id="com.app.robot.dialogs.HitDialog" style="stroke:#A80036;stroke-width:1.5;" width="237" x="55.5" y="335.0195"/><ellipse cx="127.5" cy="353.3203" fill="#ADD1B2" rx="12" ry="12" style="stroke:#A80036;stroke-width:1.0;"/><path d="M129.5,348.5703 Q129.7031,348.0703 129.9375,347.8203 Q130.1719,347.5703 130.4375,347.5703 Q130.9063,347.5703 131.2031,347.8516 Q131.5,348.1328 131.5,348.7891 L131.5,350.3516 Q131.5,351.0078 131.2188,351.2891 Q130.9375,351.5703 130.5,351.5703 Q130.1094,351.5703 129.8594,351.3984 Q129.6094,351.2266 129.5,350.7734 Q129.4375,350.4609 129.25,350.2891 Q128.8594,349.9609 128.1875,349.7734 Q127.5156,349.5703 126.8438,349.5703 Q126,349.5703 125.2813,349.9453 Q124.5781,350.3047 124.0313,351.1484 Q123.5,351.9766 123.5,353.1328 L123.5,354.3672 Q123.75,355.7422 124.5938,356.6641 Q125.4375,357.5703 127.1406,357.5703 Q128.1719,357.5703 128.625,357.1641 Q129.2969,356.9297 129.7656,356.2422 Q130.0469,355.8203 130.2031,355.6953 Q130.375,355.5703 130.5781,355.5703 Q130.9375,355.5703 131.2188,355.9141 Q131.5,356.2578 131.5,356.7266 Q131.5,357.1953 131.1094,357.7422 Q130.5625,358.5234 129.6875,358.9609 Q128.5,359.5703 127.0781,359.5703 Q125.4219,359.5703 124.0938,358.8672 Q123.0156,358.3047 122.25,357.0859 Q121.5,355.8516 121.5,354.4141 L121.5,353.1016 Q121.5,351.6016 122.1719,350.2891 Q122.8594,348.9766 124.0625,348.2734 Q125.2813,347.5703 126.6406,347.5703 Q127.4688,347.5703 128.1719,347.8203 Q128.8906,348.0703 129.5,348.5703 Z " fill="#000000"/><text fill="#000000" font-family="Segoe UI" font-size="20" lengthAdjust="spacing" textLength="84" x="149.5" y="361.6016">HitDialog</text><line style="stroke:#A80036;stroke-width:1.5;" x1="56.5" x2="291.5" y1="371.6211" y2="371.6211"/><line style="stroke:#A80036;stroke-width:1.5;" x1="56.5" x2="291.5" y1="379.6211" y2="379.6211"/><ellipse cx="66.5" cy="390.6211" fill="#84BE84" rx="3" ry="3" style="stroke:#038048;stroke-width:1.0;"/><text fill="#000000" font-family="Segoe UI" font-size="15" lengthAdjust="spacing" textLength="210" x="76.5" y="399.8076">Dialog onCreateDialog(Bundle)</text><!--MD5=[b7fe52529ed1db73be7e419ab94beb2e]
class com.app.robot.fragments.LaserControlFragment--><rect codeLine="8" fill="#FEFECE" filter="url(#f1ao1c5osqnzqx)" height="411.7227" id="com.app.robot.fragments.LaserControlFragment" style="stroke:#A80036;stroke-width:1.5;" width="381" x="1277.5" y="165.5195"/><ellipse cx="1366.5" cy="183.8203" fill="#ADD1B2" rx="12" ry="12" style="stroke:#A80036;stroke-width:1.0;"/><path d="M1368.5,179.0703 Q1368.7031,178.5703 1368.9375,178.3203 Q1369.1719,178.0703 1369.4375,178.0703 Q1369.9063,178.0703 1370.2031,178.3516 Q1370.5,178.6328 1370.5,179.2891 L1370.5,180.8516 Q1370.5,181.5078 1370.2188,181.7891 Q1369.9375,182.0703 1369.5,182.0703 Q1369.1094,182.0703 1368.8594,181.8984 Q1368.6094,181.7266 1368.5,181.2734 Q1368.4375,180.9609 1368.25,180.7891 Q1367.8594,180.4609 1367.1875,180.2734 Q1366.5156,180.0703 1365.8438,180.0703 Q1365,180.0703 1364.2813,180.4453 Q1363.5781,180.8047 1363.0313,181.6484 Q1362.5,182.4766 1362.5,183.6328 L1362.5,184.8672 Q1362.75,186.2422 1363.5938,187.1641 Q1364.4375,188.0703 1366.1406,188.0703 Q1367.1719,188.0703 1367.625,187.6641 Q1368.2969,187.4297 1368.7656,186.7422 Q1369.0469,186.3203 1369.2031,186.1953 Q1369.375,186.0703 1369.5781,186.0703 Q1369.9375,186.0703 1370.2188,186.4141 Q1370.5,186.7578 1370.5,187.2266 Q1370.5,187.6953 1370.1094,188.2422 Q1369.5625,189.0234 1368.6875,189.4609 Q1367.5,190.0703 1366.0781,190.0703 Q1364.4219,190.0703 1363.0938,189.3672 Q1362.0156,188.8047 1361.25,187.5859 Q1360.5,186.3516 1360.5,184.9141 L1360.5,183.6016 Q1360.5,182.1016 1361.1719,180.7891 Q1361.8594,179.4766 1363.0625,178.7734 Q1364.2813,178.0703 1365.6406,178.0703 Q1366.4688,178.0703 1367.1719,178.3203 Q1367.8906,178.5703 1368.5,179.0703 Z " fill="#000000"/><text fill="#000000" font-family="Segoe UI" font-size="20" lengthAdjust="spacing" textLength="194" x="1388.5" y="192.1016">LaserControlFragment</text><line style="stroke:#A80036;stroke-width:1.5;" x1="1278.5" x2="1657.5" y1="202.1211" y2="202.1211"/><rect fill="none" height="6" style="stroke:#C82930;stroke-width:1.0;" width="6" x="1285.5" y="210.1211"/><text fill="#000000" font-family="Segoe UI" font-size="15" lengthAdjust="spacing" textLength="164" x="1298.5" y="222.3076">DatabaseReference laser</text><rect fill="none" height="6" style="stroke:#C82930;stroke-width:1.0;" width="6" x="1285.5" y="230.0723"/><text fill="#000000" font-family="Segoe UI" font-size="15" lengthAdjust="spacing" textLength="191" x="1298.5" y="242.2588">DatabaseReference laser_ctrl</text><rect fill="none" height="6" style="stroke:#C82930;stroke-width:1.0;" width="6" x="1285.5" y="250.0234"/><text fill="#000000" font-family="Segoe UI" font-size="15" lengthAdjust="spacing" textLength="183" x="1298.5" y="262.21">ToggleButton toggleButton</text><rect fill="none" height="6" style="stroke:#C82930;stroke-width:1.0;" width="6" x="1285.5" y="269.9746"/><text fill="#000000" font-family="Segoe UI" font-size="15" lengthAdjust="spacing" textLength="121" x="1298.5" y="282.1611">TextView textView</text><rect fill="none" height="6" style="stroke:#C82930;stroke-width:1.0;" width="6" x="1285.5" y="289.9258"/><text fill="#000000" font-family="Segoe UI" font-size="15" lengthAdjust="spacing" textLength="182" x="1298.5" y="302.1123">TextView textViewDirection</text><rect fill="none" height="6" style="stroke:#C82930;stroke-width:1.0;" width="6" x="1285.5" y="309.877"/><text fill="#000000" font-family="Segoe UI" font-size="15" lengthAdjust="spacing" textLength="120" x="1298.5" y="322.0635">TextView xDisplay</text><rect fill="none" height="6" style="stroke:#C82930;stroke-width:1.0;" width="6" x="1285.5" y="329.8281"/><text fill="#000000" font-family="Segoe UI" font-size="15" lengthAdjust="spacing" textLength="71" x="1298.5" y="342.0146">int x_angle</text><rect fill="none" height="6" style="stroke:#C82930;stroke-width:1.0;" width="6" x="1285.5" y="349.7793"/><text fill="#000000" font-family="Segoe UI" font-size="15" lengthAdjust="spacing" textLength="71" x="1298.5" y="361.9658">int y_angle</text><line style="stroke:#A80036;stroke-width:1.5;" x1="1278.5" x2="1657.5" y1="369.7305" y2="369.7305"/><ellipse cx="1288.5" cy="380.7305" fill="#84BE84" rx="3" ry="3" style="stroke:#038048;stroke-width:1.0;"/><text fill="#000000" font-family="Segoe UI" font-size="15" lengthAdjust="spacing" textLength="354" x="1298.5" y="389.917">View onCreateView(LayoutInflater,ViewGroup,Bundle)</text><ellipse cx="1288.5" cy="400.6816" fill="#84BE84" rx="3" ry="3" style="stroke:#038048;stroke-width:1.0;"/><text fill="#000000" font-family="Segoe UI" font-size="15" lengthAdjust="spacing" textLength="245" x="1298.5" y="409.8682">boolean onTouch(View,MotionEvent)</text><ellipse cx="1288.5" cy="420.6328" fill="#84BE84" rx="3" ry="3" style="stroke:#038048;stroke-width:1.0;"/><text fill="#000000" font-family="Segoe UI" font-size="15" lengthAdjust="spacing" textLength="351" x="1298.5" y="429.8193">void onCheckedChanged(CompoundButton,boolean)</text><ellipse cx="1288.5" cy="440.584" fill="#84BE84" rx="3" ry="3" style="stroke:#038048;stroke-width:1.0;"/><text fill="#000000" font-family="Segoe UI" font-size="15" lengthAdjust="spacing" textLength="235" x="1298.5" y="449.7705">void onDataChange(DataSnapshot)</text><ellipse cx="1288.5" cy="460.5352" fill="#84BE84" rx="3" ry="3" style="stroke:#038048;stroke-width:1.0;"/><text fill="#000000" font-family="Segoe UI" font-size="15" lengthAdjust="spacing" textLength="220" x="1298.5" y="469.7217">void onCancelled(DatabaseError)</text><ellipse cx="1288.5" cy="480.4863" fill="#84BE84" rx="3" ry="3" style="stroke:#038048;stroke-width:1.0;"/><text fill="#000000" font-family="Segoe UI" font-size="15" lengthAdjust="spacing" textLength="123" x="1298.5" y="489.6729">void onClick(View)</text><rect fill="#F24D5C" height="6" style="stroke:#C82930;stroke-width:1.0;" width="6" x="1285.5" y="497.4375"/><text fill="#000000" font-family="Segoe UI" font-size="15" lengthAdjust="spacing" textLength="144" x="1298.5" y="509.624">void initServos(int,int)</text><rect fill="#F24D5C" height="6" style="stroke:#C82930;stroke-width:1.0;" width="6" x="1285.5" y="517.3887"/><text fill="#000000" font-family="Segoe UI" font-size="15" lengthAdjust="spacing" textLength="176" x="1298.5" y="529.5752">void updateDisplay(int,int)</text><rect fill="#F24D5C" height="6" style="stroke:#C82930;stroke-width:1.0;" width="6" x="1285.5" y="537.3398"/><text fill="#000000" font-family="Segoe UI" font-size="15" lengthAdjust="spacing" textLength="219" x="1298.5" y="549.5264">void rotateXServo(boolean,View)</text><rect fill="#F24D5C" height="6" style="stroke:#C82930;stroke-width:1.0;" width="6" x="1285.5" y="557.291"/><text fill="#000000" font-family="Segoe UI" font-size="15" lengthAdjust="spacing" textLength="218" x="1298.5" y="569.4775">void rotateYServo(boolean,View)</text><!--MD5=[576ac8abbcffb4f8dccddbb900075e23]
class com.app.robot.fragments.MotorsControlFragment--><rect codeLine="29" fill="#FEFECE" filter="url(#f1ao1c5osqnzqx)" height="152.3574" id="com.app.robot.fragments.MotorsControlFragment" style="stroke:#A80036;stroke-width:1.5;" width="396" x="1694" y="295.5195"/><ellipse cx="1780.5" cy="313.8203" fill="#ADD1B2" rx="12" ry="12" style="stroke:#A80036;stroke-width:1.0;"/><path d="M1782.5,309.0703 Q1782.7031,308.5703 1782.9375,308.3203 Q1783.1719,308.0703 1783.4375,308.0703 Q1783.9063,308.0703 1784.2031,308.3516 Q1784.5,308.6328 1784.5,309.2891 L1784.5,310.8516 Q1784.5,311.5078 1784.2188,311.7891 Q1783.9375,312.0703 1783.5,312.0703 Q1783.1094,312.0703 1782.8594,311.8984 Q1782.6094,311.7266 1782.5,311.2734 Q1782.4375,310.9609 1782.25,310.7891 Q1781.8594,310.4609 1781.1875,310.2734 Q1780.5156,310.0703 1779.8438,310.0703 Q1779,310.0703 1778.2813,310.4453 Q1777.5781,310.8047 1777.0313,311.6484 Q1776.5,312.4766 1776.5,313.6328 L1776.5,314.8672 Q1776.75,316.2422 1777.5938,317.1641 Q1778.4375,318.0703 1780.1406,318.0703 Q1781.1719,318.0703 1781.625,317.6641 Q1782.2969,317.4297 1782.7656,316.7422 Q1783.0469,316.3203 1783.2031,316.1953 Q1783.375,316.0703 1783.5781,316.0703 Q1783.9375,316.0703 1784.2188,316.4141 Q1784.5,316.7578 1784.5,317.2266 Q1784.5,317.6953 1784.1094,318.2422 Q1783.5625,319.0234 1782.6875,319.4609 Q1781.5,320.0703 1780.0781,320.0703 Q1778.4219,320.0703 1777.0938,319.3672 Q1776.0156,318.8047 1775.25,317.5859 Q1774.5,316.3516 1774.5,314.9141 L1774.5,313.6016 Q1774.5,312.1016 1775.1719,310.7891 Q1775.8594,309.4766 1777.0625,308.7734 Q1778.2813,308.0703 1779.6406,308.0703 Q1780.4688,308.0703 1781.1719,308.3203 Q1781.8906,308.5703 1782.5,309.0703 Z " fill="#000000"/><text fill="#000000" font-family="Segoe UI" font-size="20" lengthAdjust="spacing" textLength="214" x="1802.5" y="322.1016">MotorsControlFragment</text><line style="stroke:#A80036;stroke-width:1.5;" x1="1695" x2="2089" y1="332.1211" y2="332.1211"/><rect fill="none" height="6" style="stroke:#C82930;stroke-width:1.0;" width="6" x="1702" y="340.1211"/><text fill="#000000" font-family="Segoe UI" font-size="15" lengthAdjust="spacing" textLength="136" x="1715" y="352.3076">TextView speedView</text><rect fill="none" height="6" style="stroke:#C82930;stroke-width:1.0;" width="6" x="1702" y="360.0723"/><text fill="#000000" font-family="Segoe UI" font-size="15" lengthAdjust="spacing" textLength="211" x="1715" y="372.2588">DatabaseReference motorNode</text><line style="stroke:#A80036;stroke-width:1.5;" x1="1695" x2="2089" y1="380.0234" y2="380.0234"/><ellipse cx="1705" cy="391.0234" fill="#84BE84" rx="3" ry="3" style="stroke:#038048;stroke-width:1.0;"/><text fill="#000000" font-family="Segoe UI" font-size="15" lengthAdjust="spacing" textLength="354" x="1715" y="400.21">View onCreateView(LayoutInflater,ViewGroup,Bundle)</text><ellipse cx="1705" cy="410.9746" fill="#84BE84" rx="3" ry="3" style="stroke:#038048;stroke-width:1.0;"/><text fill="#000000" font-family="Segoe UI" font-size="15" lengthAdjust="spacing" textLength="245" x="1715" y="420.1611">boolean onTouch(View,MotionEvent)</text><rect fill="#F24D5C" height="6" style="stroke:#C82930;stroke-width:1.0;" width="6" x="1702" y="427.9258"/><text fill="#000000" font-family="Segoe UI" font-size="15" lengthAdjust="spacing" textLength="369" x="1715" y="440.1123">void writeToMotors(boolean,boolean,boolean,boolean)</text><!--MD5=[7507c5c16add291da81bbb455a562da5]
class com.app.robot.fragments.OnTouchListener--><rect codeLine="56" fill="#FEFECE" filter="url(#f1ao1c5osqnzqx)" height="52.6016" id="com.app.robot.fragments.OnTouchListener" style="stroke:#A80036;stroke-width:1.5;" width="179" x="1797.5" y="52.5195"/><ellipse cx="1813.5" cy="70.8203" fill="#B4A7E5" rx="12" ry="12" style="stroke:#A80036;stroke-width:1.0;"/><path d="M1814.5,66.8203 L1814.5,74.8203 L1816.5,74.8203 L1816.8906,74.8203 L1817.5,75.3672 L1817.5,75.8203 L1817.5,76.2734 L1816.8906,76.8203 L1816.5,76.8203 L1810.5,76.8203 L1810.1094,76.8203 L1809.5,76.2734 L1809.5,75.8203 L1809.5,75.3672 L1810.1094,74.8203 L1810.5,74.8203 L1812.5,74.8203 L1812.5,66.8203 L1810.5,66.8203 L1810.1094,66.8203 L1809.5,66.2734 L1809.5,65.8203 L1809.5,65.3672 L1810.1094,64.8203 L1810.5,64.8203 L1816.5,64.8203 L1816.8906,64.8203 L1817.5,65.3672 L1817.5,65.8203 L1817.5,66.2734 L1816.8906,66.8203 L1816.5,66.8203 L1814.5,66.8203 Z " fill="#000000"/><text fill="#000000" font-family="Segoe UI" font-size="20" font-style="italic" lengthAdjust="spacing" textLength="145" x="1828.5" y="79.1016">OnTouchListener</text><line style="stroke:#A80036;stroke-width:1.5;" x1="1798.5" x2="1975.5" y1="89.1211" y2="89.1211"/><line style="stroke:#A80036;stroke-width:1.5;" x1="1798.5" x2="1975.5" y1="97.1211" y2="97.1211"/><!--MD5=[fff975b40694b7282ecfe175bd65385d]
class com.app.robot.fragments.OnCheckedChangeListener--><rect codeLine="57" fill="#FEFECE" filter="url(#f1ao1c5osqnzqx)" height="52.6016" id="com.app.robot.fragments.OnCheckedChangeListener" style="stroke:#A80036;stroke-width:1.5;" width="267" x="1490.5" y="52.5195"/><ellipse cx="1506.5" cy="70.8203" fill="#B4A7E5" rx="12" ry="12" style="stroke:#A80036;stroke-width:1.0;"/><path d="M1507.5,66.8203 L1507.5,74.8203 L1509.5,74.8203 L1509.8906,74.8203 L1510.5,75.3672 L1510.5,75.8203 L1510.5,76.2734 L1509.8906,76.8203 L1509.5,76.8203 L1503.5,76.8203 L1503.1094,76.8203 L1502.5,76.2734 L1502.5,75.8203 L1502.5,75.3672 L1503.1094,74.8203 L1503.5,74.8203 L1505.5,74.8203 L1505.5,66.8203 L1503.5,66.8203 L1503.1094,66.8203 L1502.5,66.2734 L1502.5,65.8203 L1502.5,65.3672 L1503.1094,64.8203 L1503.5,64.8203 L1509.5,64.8203 L1509.8906,64.8203 L1510.5,65.3672 L1510.5,65.8203 L1510.5,66.2734 L1509.8906,66.8203 L1509.5,66.8203 L1507.5,66.8203 Z " fill="#000000"/><text fill="#000000" font-family="Segoe UI" font-size="20" font-style="italic" lengthAdjust="spacing" textLength="233" x="1521.5" y="79.1016">OnCheckedChangeListener</text><line style="stroke:#A80036;stroke-width:1.5;" x1="1491.5" x2="1756.5" y1="89.1211" y2="89.1211"/><line style="stroke:#A80036;stroke-width:1.5;" x1="1491.5" x2="1756.5" y1="97.1211" y2="97.1211"/><!--MD5=[b3a5bd4db2a0184081f12699395fd614]
class com.app.robot.fragments.OnClickListener--><rect codeLine="58" fill="#FEFECE" filter="url(#f1ao1c5osqnzqx)" height="52.6016" id="com.app.robot.fragments.OnClickListener" style="stroke:#A80036;stroke-width:1.5;" width="168" x="1287" y="52.5195"/><ellipse cx="1303" cy="70.8203" fill="#B4A7E5" rx="12" ry="12" style="stroke:#A80036;stroke-width:1.0;"/><path d="M1304,66.8203 L1304,74.8203 L1306,74.8203 L1306.3906,74.8203 L1307,75.3672 L1307,75.8203 L1307,76.2734 L1306.3906,76.8203 L1306,76.8203 L1300,76.8203 L1299.6094,76.8203 L1299,76.2734 L1299,75.8203 L1299,75.3672 L1299.6094,74.8203 L1300,74.8203 L1302,74.8203 L1302,66.8203 L1300,66.8203 L1299.6094,66.8203 L1299,66.2734 L1299,65.8203 L1299,65.3672 L1299.6094,64.8203 L1300,64.8203 L1306,64.8203 L1306.3906,64.8203 L1307,65.3672 L1307,65.8203 L1307,66.2734 L1306.3906,66.8203 L1306,66.8203 L1304,66.8203 Z " fill="#000000"/><text fill="#000000" font-family="Segoe UI" font-size="20" font-style="italic" lengthAdjust="spacing" textLength="134" x="1318" y="79.1016">OnClickListener</text><line style="stroke:#A80036;stroke-width:1.5;" x1="1288" x2="1454" y1="89.1211" y2="89.1211"/><line style="stroke:#A80036;stroke-width:1.5;" x1="1288" x2="1454" y1="97.1211" y2="97.1211"/><!--MD5=[ac9fbc66a13eff031c6763a8b9a16ac7]
class com.app.robot.main.MainActivity--><rect codeLine="36" fill="#FEFECE" filter="url(#f1ao1c5osqnzqx)" height="252.1133" id="com.app.robot.main.MainActivity" style="stroke:#A80036;stroke-width:1.5;" width="286" x="614" y="245.5195"/><ellipse cx="697.5" cy="263.8203" fill="#ADD1B2" rx="12" ry="12" style="stroke:#A80036;stroke-width:1.0;"/><path d="M699.5,259.0703 Q699.7031,258.5703 699.9375,258.3203 Q700.1719,258.0703 700.4375,258.0703 Q700.9063,258.0703 701.2031,258.3516 Q701.5,258.6328 701.5,259.2891 L701.5,260.8516 Q701.5,261.5078 701.2188,261.7891 Q700.9375,262.0703 700.5,262.0703 Q700.1094,262.0703 699.8594,261.8984 Q699.6094,261.7266 699.5,261.2734 Q699.4375,260.9609 699.25,260.7891 Q698.8594,260.4609 698.1875,260.2734 Q697.5156,260.0703 696.8438,260.0703 Q696,260.0703 695.2813,260.4453 Q694.5781,260.8047 694.0313,261.6484 Q693.5,262.4766 693.5,263.6328 L693.5,264.8672 Q693.75,266.2422 694.5938,267.1641 Q695.4375,268.0703 697.1406,268.0703 Q698.1719,268.0703 698.625,267.6641 Q699.2969,267.4297 699.7656,266.7422 Q700.0469,266.3203 700.2031,266.1953 Q700.375,266.0703 700.5781,266.0703 Q700.9375,266.0703 701.2188,266.4141 Q701.5,266.7578 701.5,267.2266 Q701.5,267.6953 701.1094,268.2422 Q700.5625,269.0234 699.6875,269.4609 Q698.5,270.0703 697.0781,270.0703 Q695.4219,270.0703 694.0938,269.3672 Q693.0156,268.8047 692.25,267.5859 Q691.5,266.3516 691.5,264.9141 L691.5,263.6016 Q691.5,262.1016 692.1719,260.7891 Q692.8594,259.4766 694.0625,258.7734 Q695.2813,258.0703 696.6406,258.0703 Q697.4688,258.0703 698.1719,258.3203 Q698.8906,258.5703 699.5,259.0703 Z " fill="#000000"/><text fill="#000000" font-family="Segoe UI" font-size="20" lengthAdjust="spacing" textLength="110" x="719.5" y="272.1016">MainActivity</text><line style="stroke:#A80036;stroke-width:1.5;" x1="615" x2="899" y1="282.1211" y2="282.1211"/><rect fill="none" height="6" style="stroke:#C82930;stroke-width:1.0;" width="6" x="622" y="290.1211"/><text fill="#000000" font-family="Segoe UI" font-size="15" lengthAdjust="spacing" textLength="187" x="635" y="302.3076">DatabaseReference laser_hit</text><rect fill="none" height="6" style="stroke:#C82930;stroke-width:1.0;" width="6" x="622" y="310.0723"/><text fill="#000000" font-family="Segoe UI" font-size="15" lengthAdjust="spacing" textLength="131" x="635" y="322.2588">HitDialog hitDialog</text><rect fill="none" height="6" style="stroke:#C82930;stroke-width:1.0;" width="6" x="622" y="330.0234"/><text fill="#000000" font-family="Segoe UI" font-size="15" lengthAdjust="spacing" textLength="158" x="635" y="342.21">ViewPager2 viewPager2</text><line style="stroke:#A80036;stroke-width:1.5;" x1="615" x2="899" y1="349.9746" y2="349.9746"/><polygon fill="#FFFF44" points="625,355.9746,629,359.9746,625,363.9746,621,359.9746" style="stroke:#B38D22;stroke-width:1.0;"/><text fill="#000000" font-family="Segoe UI" font-size="15" lengthAdjust="spacing" textLength="149" x="635" y="370.1611">void onCreate(Bundle)</text><ellipse cx="625" cy="380.9258" fill="#84BE84" rx="3" ry="3" style="stroke:#038048;stroke-width:1.0;"/><text fill="#000000" font-family="Segoe UI" font-size="15" lengthAdjust="spacing" textLength="235" x="635" y="390.1123">void onDataChange(DataSnapshot)</text><ellipse cx="625" cy="400.877" fill="#84BE84" rx="3" ry="3" style="stroke:#038048;stroke-width:1.0;"/><text fill="#000000" font-family="Segoe UI" font-size="15" lengthAdjust="spacing" textLength="220" x="635" y="410.0635">void onCancelled(DatabaseError)</text><rect fill="#F24D5C" height="6" style="stroke:#C82930;stroke-width:1.0;" width="6" x="622" y="417.8281"/><text fill="#000000" font-family="Segoe UI" font-size="15" lengthAdjust="spacing" textLength="122" x="635" y="430.0146">void openDialog()</text><ellipse cx="625" cy="440.7793" fill="#84BE84" rx="3" ry="3" style="stroke:#038048;stroke-width:1.0;"/><text fill="#000000" font-family="Segoe UI" font-size="15" lengthAdjust="spacing" textLength="239" x="635" y="449.9658">void onTabSelected(TabLayout.Tab)</text><ellipse cx="625" cy="460.7305" fill="#84BE84" rx="3" ry="3" style="stroke:#038048;stroke-width:1.0;"/><text fill="#000000" font-family="Segoe UI" font-size="15" lengthAdjust="spacing" textLength="255" x="639" y="469.917">void onTabUnselected(TabLayout.Tab)</text><ellipse cx="625" cy="480.6816" fill="#84BE84" rx="3" ry="3" style="stroke:#038048;stroke-width:1.0;"/><text fill="#000000" font-family="Segoe UI" font-size="15" lengthAdjust="spacing" textLength="254" x="635" y="489.8682">void onTabReselected(TabLayout.Tab)</text><!--MD5=[7597b51b902881afdd9305aee32c21ba]
class com.app.robot.main.OnTabSelectedListener--><rect codeLine="54" fill="#FEFECE" filter="url(#f1ao1c5osqnzqx)" height="52.6016" id="com.app.robot.main.OnTabSelectedListener" style="stroke:#A80036;stroke-width:1.5;" width="230" x="642" y="52.5195"/><ellipse cx="658" cy="70.8203" fill="#B4A7E5" rx="12" ry="12" style="stroke:#A80036;stroke-width:1.0;"/><path d="M659,66.8203 L659,74.8203 L661,74.8203 L661.3906,74.8203 L662,75.3672 L662,75.8203 L662,76.2734 L661.3906,76.8203 L661,76.8203 L655,76.8203 L654.6094,76.8203 L654,76.2734 L654,75.8203 L654,75.3672 L654.6094,74.8203 L655,74.8203 L657,74.8203 L657,66.8203 L655,66.8203 L654.6094,66.8203 L654,66.2734 L654,65.8203 L654,65.3672 L654.6094,64.8203 L655,64.8203 L661,64.8203 L661.3906,64.8203 L662,65.3672 L662,65.8203 L662,66.2734 L661.3906,66.8203 L661,66.8203 L659,66.8203 Z " fill="#000000"/><text fill="#000000" font-family="Segoe UI" font-size="20" font-style="italic" lengthAdjust="spacing" textLength="196" x="673" y="79.1016">OnTabSelectedListener</text><line style="stroke:#A80036;stroke-width:1.5;" x1="643" x2="871" y1="89.1211" y2="89.1211"/><line style="stroke:#A80036;stroke-width:1.5;" x1="643" x2="871" y1="97.1211" y2="97.1211"/><!--MD5=[59dd476fb0f73446c450508594f07f06]
class com.app.robot.adapters.PageViewAdapter--><rect codeLine="48" fill="#FEFECE" filter="url(#f1ao1c5osqnzqx)" height="112.4551" id="com.app.robot.adapters.PageViewAdapter" style="stroke:#A80036;stroke-width:1.5;" width="225" x="2420.5" y="315.5195"/><ellipse cx="2452.7" cy="333.8203" fill="#ADD1B2" rx="12" ry="12" style="stroke:#A80036;stroke-width:1.0;"/><path d="M2454.7,329.0703 Q2454.9031,328.5703 2455.1375,328.3203 Q2455.3719,328.0703 2455.6375,328.0703 Q2456.1063,328.0703 2456.4031,328.3516 Q2456.7,328.6328 2456.7,329.2891 L2456.7,330.8516 Q2456.7,331.5078 2456.4188,331.7891 Q2456.1375,332.0703 2455.7,332.0703 Q2455.3094,332.0703 2455.0594,331.8984 Q2454.8094,331.7266 2454.7,331.2734 Q2454.6375,330.9609 2454.45,330.7891 Q2454.0594,330.4609 2453.3875,330.2734 Q2452.7156,330.0703 2452.0438,330.0703 Q2451.2,330.0703 2450.4813,330.4453 Q2449.7781,330.8047 2449.2313,331.6484 Q2448.7,332.4766 2448.7,333.6328 L2448.7,334.8672 Q2448.95,336.2422 2449.7938,337.1641 Q2450.6375,338.0703 2452.3406,338.0703 Q2453.3719,338.0703 2453.825,337.6641 Q2454.4969,337.4297 2454.9656,336.7422 Q2455.2469,336.3203 2455.4031,336.1953 Q2455.575,336.0703 2455.7781,336.0703 Q2456.1375,336.0703 2456.4188,336.4141 Q2456.7,336.7578 2456.7,337.2266 Q2456.7,337.6953 2456.3094,338.2422 Q2455.7625,339.0234 2454.8875,339.4609 Q2453.7,340.0703 2452.2781,340.0703 Q2450.6219,340.0703 2449.2938,339.3672 Q2448.2156,338.8047 2447.45,337.5859 Q2446.7,336.3516 2446.7,334.9141 L2446.7,333.6016 Q2446.7,332.1016 2447.3719,330.7891 Q2448.0594,329.4766 2449.2625,328.7734 Q2450.4813,328.0703 2451.8406,328.0703 Q2452.6688,328.0703 2453.3719,328.3203 Q2454.0906,328.5703 2454.7,329.0703 Z " fill="#000000"/><text fill="#000000" font-family="Segoe UI" font-size="20" lengthAdjust="spacing" textLength="155" x="2471.3" y="342.1016">PageViewAdapter</text><line style="stroke:#A80036;stroke-width:1.5;" x1="2421.5" x2="2644.5" y1="352.1211" y2="352.1211"/><polygon fill="none" points="2431.5,359.1211,2427.5,365.1211,2435.5,365.1211" style="stroke:#1963A0;stroke-width:1.0;"/><text fill="#000000" font-family="Segoe UI" font-size="15" lengthAdjust="spacing" textLength="135" x="2441.5" y="372.3076">int numOfFragments</text><line style="stroke:#A80036;stroke-width:1.5;" x1="2421.5" x2="2644.5" y1="380.0723" y2="380.0723"/><ellipse cx="2431.5" cy="391.0723" fill="#84BE84" rx="3" ry="3" style="stroke:#038048;stroke-width:1.0;"/><text fill="#000000" font-family="Segoe UI" font-size="15" lengthAdjust="spacing" textLength="198" x="2441.5" y="400.2588">Fragment createFragment(int)</text><ellipse cx="2431.5" cy="411.0234" fill="#84BE84" rx="3" ry="3" style="stroke:#038048;stroke-width:1.0;"/><text fill="#000000" font-family="Segoe UI" font-size="15" lengthAdjust="spacing" textLength="122" x="2441.5" y="420.21">int getItemCount()</text><!--MD5=[dd52b93e4b14bf0b530ab05dbee81e31]
class com.google.firebase.database.ValueEventListener--><rect codeLine="55" fill="#FEFECE" filter="url(#f1ao1c5osqnzqx)" height="52.6016" id="com.google.firebase.database.ValueEventListener" style="stroke:#A80036;stroke-width:1.5;" width="196" x="990" y="52.5195"/><ellipse cx="1006" cy="70.8203" fill="#B4A7E5" rx="12" ry="12" style="stroke:#A80036;stroke-width:1.0;"/><path d="M1007,66.8203 L1007,74.8203 L1009,74.8203 L1009.3906,74.8203 L1010,75.3672 L1010,75.8203 L1010,76.2734 L1009.3906,76.8203 L1009,76.8203 L1003,76.8203 L1002.6094,76.8203 L1002,76.2734 L1002,75.8203 L1002,75.3672 L1002.6094,74.8203 L1003,74.8203 L1005,74.8203 L1005,66.8203 L1003,66.8203 L1002.6094,66.8203 L1002,66.2734 L1002,65.8203 L1002,65.3672 L1002.6094,64.8203 L1003,64.8203 L1009,64.8203 L1009.3906,64.8203 L1010,65.3672 L1010,65.8203 L1010,66.2734 L1009.3906,66.8203 L1009,66.8203 L1007,66.8203 Z " fill="#000000"/><text fill="#000000" font-family="Segoe UI" font-size="20" font-style="italic" lengthAdjust="spacing" textLength="162" x="1021" y="79.1016">ValueEventListener</text><line style="stroke:#A80036;stroke-width:1.5;" x1="991" x2="1185" y1="89.1211" y2="89.1211"/><line style="stroke:#A80036;stroke-width:1.5;" x1="991" x2="1185" y1="97.1211" y2="97.1211"/><!--MD5=[c982724a2f87ce2d447fedbdf0fae959]
class androidx.appcompat.app.AppCompatDialogFragment--><rect fill="#FEFECE" filter="url(#f1ao1c5osqnzqx)" height="52.6016" id="androidx.appcompat.app.AppCompatDialogFragment" style="stroke:#A80036;stroke-width:1.5;" width="283" x="32.5" y="52.5195"/><ellipse cx="48.5" cy="70.8203" fill="#ADD1B2" rx="12" ry="12" style="stroke:#A80036;stroke-width:1.0;"/><path d="M50.5,66.0703 Q50.7031,65.5703 50.9375,65.3203 Q51.1719,65.0703 51.4375,65.0703 Q51.9063,65.0703 52.2031,65.3516 Q52.5,65.6328 52.5,66.2891 L52.5,67.8516 Q52.5,68.5078 52.2188,68.7891 Q51.9375,69.0703 51.5,69.0703 Q51.1094,69.0703 50.8594,68.8984 Q50.6094,68.7266 50.5,68.2734 Q50.4375,67.9609 50.25,67.7891 Q49.8594,67.4609 49.1875,67.2734 Q48.5156,67.0703 47.8438,67.0703 Q47,67.0703 46.2813,67.4453 Q45.5781,67.8047 45.0313,68.6484 Q44.5,69.4766 44.5,70.6328 L44.5,71.8672 Q44.75,73.2422 45.5938,74.1641 Q46.4375,75.0703 48.1406,75.0703 Q49.1719,75.0703 49.625,74.6641 Q50.2969,74.4297 50.7656,73.7422 Q51.0469,73.3203 51.2031,73.1953 Q51.375,73.0703 51.5781,73.0703 Q51.9375,73.0703 52.2188,73.4141 Q52.5,73.7578 52.5,74.2266 Q52.5,74.6953 52.1094,75.2422 Q51.5625,76.0234 50.6875,76.4609 Q49.5,77.0703 48.0781,77.0703 Q46.4219,77.0703 45.0938,76.3672 Q44.0156,75.8047 43.25,74.5859 Q42.5,73.3516 42.5,71.9141 L42.5,70.6016 Q42.5,69.1016 43.1719,67.7891 Q43.8594,66.4766 45.0625,65.7734 Q46.2813,65.0703 47.6406,65.0703 Q48.4688,65.0703 49.1719,65.3203 Q49.8906,65.5703 50.5,66.0703 Z " fill="#000000"/><text fill="#000000" font-family="Segoe UI" font-size="20" lengthAdjust="spacing" textLength="249" x="63.5" y="79.1016">AppCompatDialogFragment</text><line style="stroke:#A80036;stroke-width:1.5;" x1="33.5" x2="314.5" y1="89.1211" y2="89.1211"/><line style="stroke:#A80036;stroke-width:1.5;" x1="33.5" x2="314.5" y1="97.1211" y2="97.1211"/><!--MD5=[6971ca23cf0557f0436b13ef124bfeb7]
class androidx.appcompat.app.AppCompatActivity--><rect fill="#FEFECE" filter="url(#f1ao1c5osqnzqx)" height="52.6016" id="androidx.appcompat.app.AppCompatActivity" style="stroke:#A80036;stroke-width:1.5;" width="207" x="350.5" y="52.5195"/><ellipse cx="366.5" cy="70.8203" fill="#ADD1B2" rx="12" ry="12" style="stroke:#A80036;stroke-width:1.0;"/><path d="M368.5,66.0703 Q368.7031,65.5703 368.9375,65.3203 Q369.1719,65.0703 369.4375,65.0703 Q369.9063,65.0703 370.2031,65.3516 Q370.5,65.6328 370.5,66.2891 L370.5,67.8516 Q370.5,68.5078 370.2188,68.7891 Q369.9375,69.0703 369.5,69.0703 Q369.1094,69.0703 368.8594,68.8984 Q368.6094,68.7266 368.5,68.2734 Q368.4375,67.9609 368.25,67.7891 Q367.8594,67.4609 367.1875,67.2734 Q366.5156,67.0703 365.8438,67.0703 Q365,67.0703 364.2813,67.4453 Q363.5781,67.8047 363.0313,68.6484 Q362.5,69.4766 362.5,70.6328 L362.5,71.8672 Q362.75,73.2422 363.5938,74.1641 Q364.4375,75.0703 366.1406,75.0703 Q367.1719,75.0703 367.625,74.6641 Q368.2969,74.4297 368.7656,73.7422 Q369.0469,73.3203 369.2031,73.1953 Q369.375,73.0703 369.5781,73.0703 Q369.9375,73.0703 370.2188,73.4141 Q370.5,73.7578 370.5,74.2266 Q370.5,74.6953 370.1094,75.2422 Q369.5625,76.0234 368.6875,76.4609 Q367.5,77.0703 366.0781,77.0703 Q364.4219,77.0703 363.0938,76.3672 Q362.0156,75.8047 361.25,74.5859 Q360.5,73.3516 360.5,71.9141 L360.5,70.6016 Q360.5,69.1016 361.1719,67.7891 Q361.8594,66.4766 363.0625,65.7734 Q364.2813,65.0703 365.6406,65.0703 Q366.4688,65.0703 367.1719,65.3203 Q367.8906,65.5703 368.5,66.0703 Z " fill="#000000"/><text fill="#000000" font-family="Segoe UI" font-size="20" lengthAdjust="spacing" textLength="173" x="381.5" y="79.1016">AppCompatActivity</text><line style="stroke:#A80036;stroke-width:1.5;" x1="351.5" x2="556.5" y1="89.1211" y2="89.1211"/><line style="stroke:#A80036;stroke-width:1.5;" x1="351.5" x2="556.5" y1="97.1211" y2="97.1211"/><!--MD5=[4049e0ee7b06732a05ec2ff604ef9779]
class androidx.viewpager2.adapter.FragmentStateAdapter--><rect fill="#FEFECE" filter="url(#f1ao1c5osqnzqx)" height="52.6016" id="androidx.viewpager2.adapter.FragmentStateAdapter" style="stroke:#A80036;stroke-width:1.5;" width="234" x="2416" y="52.5195"/><ellipse cx="2432" cy="70.8203" fill="#ADD1B2" rx="12" ry="12" style="stroke:#A80036;stroke-width:1.0;"/><path d="M2434,66.0703 Q2434.2031,65.5703 2434.4375,65.3203 Q2434.6719,65.0703 2434.9375,65.0703 Q2435.4063,65.0703 2435.7031,65.3516 Q2436,65.6328 2436,66.2891 L2436,67.8516 Q2436,68.5078 2435.7188,68.7891 Q2435.4375,69.0703 2435,69.0703 Q2434.6094,69.0703 2434.3594,68.8984 Q2434.1094,68.7266 2434,68.2734 Q2433.9375,67.9609 2433.75,67.7891 Q2433.3594,67.4609 2432.6875,67.2734 Q2432.0156,67.0703 2431.3438,67.0703 Q2430.5,67.0703 2429.7813,67.4453 Q2429.0781,67.8047 2428.5313,68.6484 Q2428,69.4766 2428,70.6328 L2428,71.8672 Q2428.25,73.2422 2429.0938,74.1641 Q2429.9375,75.0703 2431.6406,75.0703 Q2432.6719,75.0703 2433.125,74.6641 Q2433.7969,74.4297 2434.2656,73.7422 Q2434.5469,73.3203 2434.7031,73.1953 Q2434.875,73.0703 2435.0781,73.0703 Q2435.4375,73.0703 2435.7188,73.4141 Q2436,73.7578 2436,74.2266 Q2436,74.6953 2435.6094,75.2422 Q2435.0625,76.0234 2434.1875,76.4609 Q2433,77.0703 2431.5781,77.0703 Q2429.9219,77.0703 2428.5938,76.3672 Q2427.5156,75.8047 2426.75,74.5859 Q2426,73.3516 2426,71.9141 L2426,70.6016 Q2426,69.1016 2426.6719,67.7891 Q2427.3594,66.4766 2428.5625,65.7734 Q2429.7813,65.0703 2431.1406,65.0703 Q2431.9688,65.0703 2432.6719,65.3203 Q2433.3906,65.5703 2434,66.0703 Z " fill="#000000"/><text fill="#000000" font-family="Segoe UI" font-size="20" lengthAdjust="spacing" textLength="200" x="2447" y="79.1016">FragmentStateAdapter</text><line style="stroke:#A80036;stroke-width:1.5;" x1="2417" x2="2649" y1="89.1211" y2="89.1211"/><line style="stroke:#A80036;stroke-width:1.5;" x1="2417" x2="2649" y1="97.1211" y2="97.1211"/><!--MD5=[4ef56d7331cec24f2808280c59a4eb97]
class androidx.fragment.app.Fragment--><rect fill="#FEFECE" filter="url(#f1ao1c5osqnzqx)" height="52.6016" id="androidx.fragment.app.Fragment" style="stroke:#A80036;stroke-width:1.5;" width="118" x="2146" y="52.5195"/><ellipse cx="2162" cy="70.8203" fill="#ADD1B2" rx="12" ry="12" style="stroke:#A80036;stroke-width:1.0;"/><path d="M2164,66.0703 Q2164.2031,65.5703 2164.4375,65.3203 Q2164.6719,65.0703 2164.9375,65.0703 Q2165.4063,65.0703 2165.7031,65.3516 Q2166,65.6328 2166,66.2891 L2166,67.8516 Q2166,68.5078 2165.7188,68.7891 Q2165.4375,69.0703 2165,69.0703 Q2164.6094,69.0703 2164.3594,68.8984 Q2164.1094,68.7266 2164,68.2734 Q2163.9375,67.9609 2163.75,67.7891 Q2163.3594,67.4609 2162.6875,67.2734 Q2162.0156,67.0703 2161.3438,67.0703 Q2160.5,67.0703 2159.7813,67.4453 Q2159.0781,67.8047 2158.5313,68.6484 Q2158,69.4766 2158,70.6328 L2158,71.8672 Q2158.25,73.2422 2159.0938,74.1641 Q2159.9375,75.0703 2161.6406,75.0703 Q2162.6719,75.0703 2163.125,74.6641 Q2163.7969,74.4297 2164.2656,73.7422 Q2164.5469,73.3203 2164.7031,73.1953 Q2164.875,73.0703 2165.0781,73.0703 Q2165.4375,73.0703 2165.7188,73.4141 Q2166,73.7578 2166,74.2266 Q2166,74.6953 2165.6094,75.2422 Q2165.0625,76.0234 2164.1875,76.4609 Q2163,77.0703 2161.5781,77.0703 Q2159.9219,77.0703 2158.5938,76.3672 Q2157.5156,75.8047 2156.75,74.5859 Q2156,73.3516 2156,71.9141 L2156,70.6016 Q2156,69.1016 2156.6719,67.7891 Q2157.3594,66.4766 2158.5625,65.7734 Q2159.7813,65.0703 2161.1406,65.0703 Q2161.9688,65.0703 2162.6719,65.3203 Q2163.3906,65.5703 2164,66.0703 Z " fill="#000000"/><text fill="#000000" font-family="Segoe UI" font-size="20" lengthAdjust="spacing" textLength="84" x="2177" y="79.1016">Fragment</text><line style="stroke:#A80036;stroke-width:1.5;" x1="2147" x2="2263" y1="89.1211" y2="89.1211"/><line style="stroke:#A80036;stroke-width:1.5;" x1="2147" x2="2263" y1="97.1211" y2="97.1211"/><!--MD5=[a0d22a33489df6fbbf989ba633ca8775]
reverse link androidx.appcompat.app.AppCompatDialogFragment to com.app.robot.dialogs.HitDialog--><path codeLine="60" d="M174,125.5495 C174,183.4495 174,282.2095 174,334.9095 " fill="none" id="androidx.appcompat.app.AppCompatDialogFragment-backto-com.app.robot.dialogs.HitDialog" style="stroke:#A80036;stroke-width:1.0;"/><polygon fill="none" points="167,125.5495,174,105.5495,181,125.5495,167,125.5495" style="stroke:#A80036;stroke-width:1.0;"/><!--MD5=[d8ee3e2baf98a7f32a0c0974d2a5fc69]
reverse link androidx.viewpager2.adapter.FragmentStateAdapter to com.app.robot.adapters.PageViewAdapter--><path codeLine="61" d="M2533,125.7395 C2533,177.1295 2533,260.5195 2533,315.4495 " fill="none" id="androidx.viewpager2.adapter.FragmentStateAdapter-backto-com.app.robot.adapters.PageViewAdapter" style="stroke:#A80036;stroke-width:1.0;"/><polygon fill="none" points="2526,125.5495,2533,105.5495,2540,125.5495,2526,125.5495" style="stroke:#A80036;stroke-width:1.0;"/><!--MD5=[416929634f3f4abeb88bf5978a5a962a]
reverse link com.app.robot.fragments.OnTouchListener to com.app.robot.fragments.LaserControlFragment--><path codeLine="62" d="M1812.63,113.6795 C1800.13,119.1195 1787.24,124.5695 1775,129.5195 C1731.98,146.9095 1716.22,140.7195 1677,165.5195 C1670.88,169.3895 1664.79,173.4695 1658.75,177.7095 " fill="none" id="com.app.robot.fragments.OnTouchListener-backto-com.app.robot.fragments.LaserControlFragment" style="stroke:#A80036;stroke-width:1.0;stroke-dasharray:7.0,7.0;"/><polygon fill="none" points="1810.06,107.1695,1831.18,105.5295,1815.69,119.9895,1810.06,107.1695" style="stroke:#A80036;stroke-width:1.0;"/><!--MD5=[64cd87183f92e4797437d11a5d909b42]
reverse link com.app.robot.fragments.OnCheckedChangeListener to com.app.robot.fragments.LaserControlFragment--><path codeLine="63" d="M1600.8,123.2295 C1594.15,135.6095 1586.43,149.9895 1578.11,165.4695 " fill="none" id="com.app.robot.fragments.OnCheckedChangeListener-backto-com.app.robot.fragments.LaserControlFragment" style="stroke:#A80036;stroke-width:1.0;stroke-dasharray:7.0,7.0;"/><polygon fill="none" points="1594.66,119.8495,1610.29,105.5495,1607,126.4795,1594.66,119.8495" style="stroke:#A80036;stroke-width:1.0;"/><!--MD5=[e7ef352dc548460a2ee52c3694646cfa]
reverse link com.google.firebase.database.ValueEventListener to com.app.robot.fragments.LaserControlFragment--><path codeLine="64" d="M1137.39,117.7795 C1173.65,145.4895 1225.42,185.0695 1277.27,224.7095 " fill="none" id="com.google.firebase.database.ValueEventListener-backto-com.app.robot.fragments.LaserControlFragment" style="stroke:#A80036;stroke-width:1.0;stroke-dasharray:7.0,7.0;"/><polygon fill="none" points="1133.03,123.2495,1121.39,105.5495,1141.53,112.1295,1133.03,123.2495" style="stroke:#A80036;stroke-width:1.0;"/><!--MD5=[8bea2c343e63f6467d4b29d0a65275ff]
reverse link com.app.robot.fragments.OnClickListener to com.app.robot.fragments.LaserControlFragment--><path codeLine="65" d="M1385.87,124.5595 C1389.9,136.6395 1394.55,150.5395 1399.53,165.4695 " fill="none" id="com.app.robot.fragments.OnClickListener-backto-com.app.robot.fragments.LaserControlFragment" style="stroke:#A80036;stroke-width:1.0;stroke-dasharray:7.0,7.0;"/><polygon fill="none" points="1379.22,126.7295,1379.52,105.5495,1392.5,122.2995,1379.22,126.7295" style="stroke:#A80036;stroke-width:1.0;"/><!--MD5=[e671ff104063c2e8985fdb258dc28994]
reverse link androidx.fragment.app.Fragment to com.app.robot.fragments.LaserControlFragment--><path codeLine="66" d="M2144.52,114.7495 C2132.12,120.5795 2118.9,125.8995 2106,129.5195 C1921.78,181.2295 1850.94,85.7995 1677,165.5195 C1670.76,168.3795 1664.6,171.5095 1658.53,174.8695 " fill="none" id="androidx.fragment.app.Fragment-backto-com.app.robot.fragments.LaserControlFragment" style="stroke:#A80036;stroke-width:1.0;"/><polygon fill="none" points="2141.56,108.3995,2162.58,105.6795,2147.85,120.9095,2141.56,108.3995" style="stroke:#A80036;stroke-width:1.0;"/><!--MD5=[f3156a198976c326f773a6e237bf60ba]
reverse link com.app.robot.fragments.OnTouchListener to com.app.robot.fragments.MotorsControlFragment--><path codeLine="67" d="M1887.79,125.6595 C1888.57,171.1095 1889.78,241.6695 1890.71,295.3895 " fill="none" id="com.app.robot.fragments.OnTouchListener-backto-com.app.robot.fragments.MotorsControlFragment" style="stroke:#A80036;stroke-width:1.0;stroke-dasharray:7.0,7.0;"/><polygon fill="none" points="1880.78,125.6595,1887.44,105.5495,1894.78,125.4195,1880.78,125.6595" style="stroke:#A80036;stroke-width:1.0;"/><!--MD5=[419516cea344284a7f03e7f7ddb5e50b]
reverse link androidx.fragment.app.Fragment to com.app.robot.fragments.MotorsControlFragment--><path codeLine="68" d="M2162.65,119.3295 C2114.15,164.3295 2033.6,239.0995 1972.95,295.3895 " fill="none" id="androidx.fragment.app.Fragment-backto-com.app.robot.fragments.MotorsControlFragment" style="stroke:#A80036;stroke-width:1.0;"/><polygon fill="none" points="2158.08,114.0195,2177.5,105.5495,2167.6,124.2795,2158.08,114.0195" style="stroke:#A80036;stroke-width:1.0;"/><!--MD5=[a35515e31deedfba1a5490f5ebf2162e]
reverse link com.google.firebase.database.ValueEventListener to com.app.robot.main.MainActivity--><path codeLine="69" d="M1043.72,118.8795 C1006.7,151.3795 951.74,199.6095 899.82,245.1795 " fill="none" id="com.google.firebase.database.ValueEventListener-backto-com.app.robot.main.MainActivity" style="stroke:#A80036;stroke-width:1.0;stroke-dasharray:7.0,7.0;"/><polygon fill="none" points="1039.27,113.4795,1058.92,105.5495,1048.5,123.9995,1039.27,113.4795" style="stroke:#A80036;stroke-width:1.0;"/><!--MD5=[20974f273da40c0e6c40249faa924839]
reverse link com.app.robot.main.OnTabSelectedListener to com.app.robot.main.MainActivity--><path codeLine="70" d="M757,125.6395 C757,157.8495 757,202.6695 757,245.1795 " fill="none" id="com.app.robot.main.OnTabSelectedListener-backto-com.app.robot.main.MainActivity" style="stroke:#A80036;stroke-width:1.0;stroke-dasharray:7.0,7.0;"/><polygon fill="none" points="750,125.5495,757,105.5495,764,125.5495,750,125.5495" style="stroke:#A80036;stroke-width:1.0;"/><!--MD5=[aba6a56e7b2ac940d9f3df6dc1219389]
reverse link androidx.appcompat.app.AppCompatActivity to com.app.robot.main.MainActivity--><path codeLine="71" d="M495.45,119.7595 C529.33,152.2395 579.16,200.0195 626.26,245.1795 " fill="none" id="androidx.appcompat.app.AppCompatActivity-backto-com.app.robot.main.MainActivity" style="stroke:#A80036;stroke-width:1.0;"/><polygon fill="none" points="490.22,124.4395,480.62,105.5495,499.9,114.3295,490.22,124.4395" style="stroke:#A80036;stroke-width:1.0;"/><!--MD5=[b7e07e62efaf87298c65228c6cee9b04]
@startuml
skinparam defaultFontName Segoe UI
skinparam defaultFontSize 20


class com.app.robot.dialogs.HitDialog {
+ <size:15>Dialog onCreateDialog(Bundle)
}
class com.app.robot.fragments.LaserControlFragment {
- <size:15>DatabaseReference laser
- <size:15>DatabaseReference laser_ctrl
- <size:15>ToggleButton toggleButton
- <size:15>TextView textView
- <size:15>TextView textViewDirection
- <size:15>TextView xDisplay
- <size:15>int x_angle
- <size:15>int y_angle
+ <size:15>View onCreateView(LayoutInflater,ViewGroup,Bundle)
+ <size:15>boolean onTouch(View,MotionEvent)
+ <size:15>void onCheckedChanged(CompoundButton,boolean)
+ <size:15>void onDataChange(DataSnapshot)
+ <size:15>void onCancelled(DatabaseError)
+ <size:15>void onClick(View)
- <size:15>void initServos(int,int)
- <size:15>void updateDisplay(int,int)
- <size:15>void rotateXServo(boolean,View)
- <size:15>void rotateYServo(boolean,View)
}

class com.app.robot.fragments.MotorsControlFragment {
- <size:15>TextView speedView
- <size:15>DatabaseReference motorNode
+ <size:15>View onCreateView(LayoutInflater,ViewGroup,Bundle)
+ <size:15>boolean onTouch(View,MotionEvent)
- <size:15>void writeToMotors(boolean,boolean,boolean,boolean)
}
class com.app.robot.main.MainActivity  {
- <size:15>DatabaseReference laser_hit
- <size:15>HitDialog hitDialog
- <size:15>ViewPager2 viewPager2
# <size:15>void onCreate(Bundle)
+ <size:15>void onDataChange(DataSnapshot)
+ <size:15>void onCancelled(DatabaseError)
- <size:15>void openDialog()
+ <size:15>void onTabSelected(TabLayout.Tab)
+<size:15> void onTabUnselected(TabLayout.Tab)
+ <size:15>void onTabReselected(TabLayout.Tab)
}
class com.app.robot.adapters.PageViewAdapter {
~ <size:15>int numOfFragments
+ <size:15>Fragment createFragment(int)
+ <size:15>int getItemCount()
}

interface com.app.robot.main.OnTabSelectedListener
interface com.google.firebase.database.ValueEventListener
interface com.app.robot.fragments.OnTouchListener
interface com.app.robot.fragments.OnCheckedChangeListener
interface com.app.robot.fragments.OnClickListener

androidx.appcompat.app.AppCompatDialogFragment <|- - com.app.robot.dialogs.HitDialog
androidx.viewpager2.adapter.FragmentStateAdapter <|- - com.app.robot.adapters.PageViewAdapter
com.app.robot.fragments.OnTouchListener <|.. com.app.robot.fragments.LaserControlFragment
com.app.robot.fragments.OnCheckedChangeListener <|.. com.app.robot.fragments.LaserControlFragment
com.google.firebase.database.ValueEventListener <|.. com.app.robot.fragments.LaserControlFragment
com.app.robot.fragments.OnClickListener <|.. com.app.robot.fragments.LaserControlFragment
androidx.fragment.app.Fragment <|- - com.app.robot.fragments.LaserControlFragment
com.app.robot.fragments.OnTouchListener <|.. com.app.robot.fragments.MotorsControlFragment
androidx.fragment.app.Fragment <|- - com.app.robot.fragments.MotorsControlFragment
com.google.firebase.database.ValueEventListener <|.. com.app.robot.main.MainActivity
com.app.robot.main.OnTabSelectedListener <|.. com.app.robot.main.MainActivity
androidx.appcompat.app.AppCompatActivity <|- - com.app.robot.main.MainActivity
@enduml

PlantUML version 1.2021.00(Sun Jan 10 12:25:05 IST 2021)
(GPL source distribution)
Java Runtime: OpenJDK Runtime Environment
JVM: OpenJDK 64-Bit Server VM
Default Encoding: Cp1255
Language: en
Country: US
--></g></svg>