<?xml version="1.0" encoding="UTF-8" standalone="no"?><svg xmlns="http://www.w3.org/2000/svg" xmlns:xlink="http://www.w3.org/1999/xlink" contentScriptType="application/ecmascript" contentStyleType="text/css" height="625px" preserveAspectRatio="none" style="width:2742px;height:625px;" version="1.1" viewBox="0 0 2742 625" width="2742px" zoomAndPan="magnify"><defs><filter height="300%" id="f1okdgjtq51eot" width="300%" x="-1" y="-1"><feGaussianBlur result="blurOut" stdDeviation="2.0"/><feColorMatrix in="blurOut" result="blurOut2" type="matrix" values="0 0 0 0 0 0 0 0 0 0 0 0 0 0 0 0 0 0 .4 0"/><feOffset dx="4.0" dy="4.0" in="blurOut2" result="blurOut3"/><feBlend in="SourceGraphic" in2="blurOut3" mode="normal"/></filter></defs><g><!--MD5=[745b6c9314b84431948b1a1ba79b9657]
cluster com.app.robot.dialogs--><polygon fill="#FFFFFF" filter="url(#f1okdgjtq51eot)" points="39,315.0195,255,315.0195,262,347.6211,309,347.6211,309,449.0195,39,449.0195,39,315.0195" style="stroke:#000000;stroke-width:1.5;"/><line style="stroke:#000000;stroke-width:1.5;" x1="39" x2="262" y1="347.6211" y2="347.6211"/><text fill="#000000" font-family="Segoe UI" font-size="20" font-weight="bold" lengthAdjust="spacing" textLength="210" x="43" y="338.6016">com.app.robot.dialogs</text><!--MD5=[5a11439e6a9c928fb0d5ec822813d7c6]
cluster androidx.appcompat.app--><polygon fill="#FFFFFF" filter="url(#f1okdgjtq51eot)" points="16,7.5195,257,7.5195,264,40.1211,574,40.1211,574,121.5195,16,121.5195,16,7.5195" style="stroke:#000000;stroke-width:1.5;"/><line style="stroke:#000000;stroke-width:1.5;" x1="16" x2="264" y1="40.1211" y2="40.1211"/><text fill="#000000" font-family="Segoe UI" font-size="20" font-weight="bold" lengthAdjust="spacing" textLength="235" x="20" y="31.1016">androidx.appcompat.app</text><!--MD5=[dd123a373ec1887f1162f3944fbba751]
cluster com.app.robot.fragments--><polygon fill="#FFFFFF" filter="url(#f1okdgjtq51eot)" points="1580,145.5195,1825,145.5195,1832,178.1211,2425,178.1211,2425,618.5195,1580,618.5195,1580,145.5195" style="stroke:#000000;stroke-width:1.5;"/><line style="stroke:#000000;stroke-width:1.5;" x1="1580" x2="1832" y1="178.1211" y2="178.1211"/><text fill="#000000" font-family="Segoe UI" font-size="20" font-weight="bold" lengthAdjust="spacing" textLength="239" x="1584" y="169.1016">com.app.robot.fragments</text><!--MD5=[9766f90424e1828585cf1d2dc254d514]
cluster androidx.fragment.app--><polygon fill="#FFFFFF" filter="url(#f1okdgjtq51eot)" points="1380,7.5195,1603,7.5195,1610,40.1211,1613,40.1211,1613,121.5195,1380,121.5195,1380,7.5195" style="stroke:#000000;stroke-width:1.5;"/><line style="stroke:#000000;stroke-width:1.5;" x1="1380" x2="1610" y1="40.1211" y2="40.1211"/><text fill="#000000" font-family="Segoe UI" font-size="20" font-weight="bold" lengthAdjust="spacing" textLength="217" x="1384" y="31.1016">androidx.fragment.app</text><!--MD5=[514ff022cafc989a2e3690be0e6f403f]
cluster android.view.View--><polygon fill="#FFFFFF" filter="url(#f1okdgjtq51eot)" points="1637,7.5195,1816,7.5195,1823,40.1211,2355,40.1211,2355,121.5195,1637,121.5195,1637,7.5195" style="stroke:#000000;stroke-width:1.5;"/><line style="stroke:#000000;stroke-width:1.5;" x1="1637" x2="1823" y1="40.1211" y2="40.1211"/><text fill="#000000" font-family="Segoe UI" font-size="20" font-weight="bold" lengthAdjust="spacing" textLength="173" x="1641" y="31.1016">android.view.View</text><!--MD5=[49d50b556900341b3871ea7388b67686]
cluster com.google.firebase.database--><polygon fill="#FFFFFF" filter="url(#f1okdgjtq51eot)" points="1059,7.5195,1346,7.5195,1353,40.1211,1356,40.1211,1356,121.5195,1059,121.5195,1059,7.5195" style="stroke:#000000;stroke-width:1.5;"/><line style="stroke:#000000;stroke-width:1.5;" x1="1059" x2="1353" y1="40.1211" y2="40.1211"/><text fill="#000000" font-family="Segoe UI" font-size="20" font-weight="bold" lengthAdjust="spacing" textLength="281" x="1063" y="31.1016">com.google.firebase.database</text><!--MD5=[502031eed3d8bc3029a3c257cc58a83d]
cluster com.app.robot.main--><polygon fill="#FFFFFF" filter="url(#f1okdgjtq51eot)" points="657,225.5195,852,225.5195,859,258.1211,975,258.1211,975,538.5195,657,538.5195,657,225.5195" style="stroke:#000000;stroke-width:1.5;"/><line style="stroke:#000000;stroke-width:1.5;" x1="657" x2="859" y1="258.1211" y2="258.1211"/><text fill="#000000" font-family="Segoe UI" font-size="20" font-weight="bold" lengthAdjust="spacing" textLength="189" x="661" y="249.1016">com.app.robot.main</text><!--MD5=[411d6a27a191742f2de3e75be55b49dd]
cluster com.google.android.material.tabs.TabLayout--><polygon fill="#FFFFFF" filter="url(#f1okdgjtq51eot)" points="598,7.5195,1025,7.5195,1032,40.1211,1035,40.1211,1035,121.5195,598,121.5195,598,7.5195" style="stroke:#000000;stroke-width:1.5;"/><line style="stroke:#000000;stroke-width:1.5;" x1="598" x2="1032" y1="40.1211" y2="40.1211"/><text fill="#000000" font-family="Segoe UI" font-size="20" font-weight="bold" lengthAdjust="spacing" textLength="421" x="602" y="31.1016">com.google.android.material.tabs.TabLayout</text><!--MD5=[64dba2566c668b3a9c44a6d9624e2721]
cluster com.app.robot.adapters--><polygon fill="#FFFFFF" filter="url(#f1okdgjtq51eot)" points="2449,295.5195,2679,295.5195,2686,328.1211,2707,328.1211,2707,468.5195,2449,468.5195,2449,295.5195" style="stroke:#000000;stroke-width:1.5;"/><line style="stroke:#000000;stroke-width:1.5;" x1="2449" x2="2686" y1="328.1211" y2="328.1211"/><text fill="#000000" font-family="Segoe UI" font-size="20" font-weight="bold" lengthAdjust="spacing" textLength="224" x="2453" y="319.1016">com.app.robot.adapters</text><!--MD5=[fac4d499f07f8f5f0b9be42f7bfd5bcd]
cluster androidx.viewpager2.adapter--><polygon fill="#FFFFFF" filter="url(#f1okdgjtq51eot)" points="2432,7.5195,2715,7.5195,2722,40.1211,2725,40.1211,2725,121.5195,2432,121.5195,2432,7.5195" style="stroke:#000000;stroke-width:1.5;"/><line style="stroke:#000000;stroke-width:1.5;" x1="2432" x2="2722" y1="40.1211" y2="40.1211"/><text fill="#000000" font-family="Segoe UI" font-size="20" font-weight="bold" lengthAdjust="spacing" textLength="277" x="2436" y="31.1016">androidx.viewpager2.adapter</text><!--MD5=[46e792cfa3002f10e7f7a53dfda236d2]
class com.app.robot.dialogs.HitDialog--><rect codeLine="3" fill="#FEFECE" filter="url(#f1okdgjtq51eot)" height="72.5527" id="com.app.robot.dialogs.HitDialog" style="stroke:#A80036;stroke-width:1.5;" width="237" x="55.5" y="360.0195"/><ellipse cx="127.5" cy="378.3203" fill="#ADD1B2" rx="12" ry="12" style="stroke:#A80036;stroke-width:1.0;"/><path d="M129.5,373.5703 Q129.7031,373.0703 129.9375,372.8203 Q130.1719,372.5703 130.4375,372.5703 Q130.9063,372.5703 131.2031,372.8516 Q131.5,373.1328 131.5,373.7891 L131.5,375.3516 Q131.5,376.0078 131.2188,376.2891 Q130.9375,376.5703 130.5,376.5703 Q130.1094,376.5703 129.8594,376.3984 Q129.6094,376.2266 129.5,375.7734 Q129.4375,375.4609 129.25,375.2891 Q128.8594,374.9609 128.1875,374.7734 Q127.5156,374.5703 126.8438,374.5703 Q126,374.5703 125.2813,374.9453 Q124.5781,375.3047 124.0313,376.1484 Q123.5,376.9766 123.5,378.1328 L123.5,379.3672 Q123.75,380.7422 124.5938,381.6641 Q125.4375,382.5703 127.1406,382.5703 Q128.1719,382.5703 128.625,382.1641 Q129.2969,381.9297 129.7656,381.2422 Q130.0469,380.8203 130.2031,380.6953 Q130.375,380.5703 130.5781,380.5703 Q130.9375,380.5703 131.2188,380.9141 Q131.5,381.2578 131.5,381.7266 Q131.5,382.1953 131.1094,382.7422 Q130.5625,383.5234 129.6875,383.9609 Q128.5,384.5703 127.0781,384.5703 Q125.4219,384.5703 124.0938,383.8672 Q123.0156,383.3047 122.25,382.0859 Q121.5,380.8516 121.5,379.4141 L121.5,378.1016 Q121.5,376.6016 122.1719,375.2891 Q122.8594,373.9766 124.0625,373.2734 Q125.2813,372.5703 126.6406,372.5703 Q127.4688,372.5703 128.1719,372.8203 Q128.8906,373.0703 129.5,373.5703 Z " fill="#000000"/><text fill="#000000" font-family="Segoe UI" font-size="20" lengthAdjust="spacing" textLength="84" x="149.5" y="386.6016">HitDialog</text><line style="stroke:#A80036;stroke-width:1.5;" x1="56.5" x2="291.5" y1="396.6211" y2="396.6211"/><line style="stroke:#A80036;stroke-width:1.5;" x1="56.5" x2="291.5" y1="404.6211" y2="404.6211"/><ellipse cx="66.5" cy="415.6211" fill="#84BE84" rx="3" ry="3" style="stroke:#038048;stroke-width:1.0;"/><text fill="#000000" font-family="Segoe UI" font-size="15" lengthAdjust="spacing" textLength="210" x="76.5" y="424.8076">Dialog onCreateDialog(Bundle)</text><!--MD5=[c982724a2f87ce2d447fedbdf0fae959]
class androidx.appcompat.app.AppCompatDialogFragment--><rect fill="#FEFECE" filter="url(#f1okdgjtq51eot)" height="52.6016" id="androidx.appcompat.app.AppCompatDialogFragment" style="stroke:#A80036;stroke-width:1.5;" width="283" x="32.5" y="52.5195"/><ellipse cx="48.5" cy="70.8203" fill="#ADD1B2" rx="12" ry="12" style="stroke:#A80036;stroke-width:1.0;"/><path d="M50.5,66.0703 Q50.7031,65.5703 50.9375,65.3203 Q51.1719,65.0703 51.4375,65.0703 Q51.9063,65.0703 52.2031,65.3516 Q52.5,65.6328 52.5,66.2891 L52.5,67.8516 Q52.5,68.5078 52.2188,68.7891 Q51.9375,69.0703 51.5,69.0703 Q51.1094,69.0703 50.8594,68.8984 Q50.6094,68.7266 50.5,68.2734 Q50.4375,67.9609 50.25,67.7891 Q49.8594,67.4609 49.1875,67.2734 Q48.5156,67.0703 47.8438,67.0703 Q47,67.0703 46.2813,67.4453 Q45.5781,67.8047 45.0313,68.6484 Q44.5,69.4766 44.5,70.6328 L44.5,71.8672 Q44.75,73.2422 45.5938,74.1641 Q46.4375,75.0703 48.1406,75.0703 Q49.1719,75.0703 49.625,74.6641 Q50.2969,74.4297 50.7656,73.7422 Q51.0469,73.3203 51.2031,73.1953 Q51.375,73.0703 51.5781,73.0703 Q51.9375,73.0703 52.2188,73.4141 Q52.5,73.7578 52.5,74.2266 Q52.5,74.6953 52.1094,75.2422 Q51.5625,76.0234 50.6875,76.4609 Q49.5,77.0703 48.0781,77.0703 Q46.4219,77.0703 45.0938,76.3672 Q44.0156,75.8047 43.25,74.5859 Q42.5,73.3516 42.5,71.9141 L42.5,70.6016 Q42.5,69.1016 43.1719,67.7891 Q43.8594,66.4766 45.0625,65.7734 Q46.2813,65.0703 47.6406,65.0703 Q48.4688,65.0703 49.1719,65.3203 Q49.8906,65.5703 50.5,66.0703 Z " fill="#000000"/><text fill="#000000" font-family="Segoe UI" font-size="20" lengthAdjust="spacing" textLength="249" x="63.5" y="79.1016">AppCompatDialogFragment</text><line style="stroke:#A80036;stroke-width:1.5;" x1="33.5" x2="314.5" y1="89.1211" y2="89.1211"/><line style="stroke:#A80036;stroke-width:1.5;" x1="33.5" x2="314.5" y1="97.1211" y2="97.1211"/><!--MD5=[6971ca23cf0557f0436b13ef124bfeb7]
class androidx.appcompat.app.AppCompatActivity--><rect fill="#FEFECE" filter="url(#f1okdgjtq51eot)" height="52.6016" id="androidx.appcompat.app.AppCompatActivity" style="stroke:#A80036;stroke-width:1.5;" width="207" x="350.5" y="52.5195"/><ellipse cx="366.5" cy="70.8203" fill="#ADD1B2" rx="12" ry="12" style="stroke:#A80036;stroke-width:1.0;"/><path d="M368.5,66.0703 Q368.7031,65.5703 368.9375,65.3203 Q369.1719,65.0703 369.4375,65.0703 Q369.9063,65.0703 370.2031,65.3516 Q370.5,65.6328 370.5,66.2891 L370.5,67.8516 Q370.5,68.5078 370.2188,68.7891 Q369.9375,69.0703 369.5,69.0703 Q369.1094,69.0703 368.8594,68.8984 Q368.6094,68.7266 368.5,68.2734 Q368.4375,67.9609 368.25,67.7891 Q367.8594,67.4609 367.1875,67.2734 Q366.5156,67.0703 365.8438,67.0703 Q365,67.0703 364.2813,67.4453 Q363.5781,67.8047 363.0313,68.6484 Q362.5,69.4766 362.5,70.6328 L362.5,71.8672 Q362.75,73.2422 363.5938,74.1641 Q364.4375,75.0703 366.1406,75.0703 Q367.1719,75.0703 367.625,74.6641 Q368.2969,74.4297 368.7656,73.7422 Q369.0469,73.3203 369.2031,73.1953 Q369.375,73.0703 369.5781,73.0703 Q369.9375,73.0703 370.2188,73.4141 Q370.5,73.7578 370.5,74.2266 Q370.5,74.6953 370.1094,75.2422 Q369.5625,76.0234 368.6875,76.4609 Q367.5,77.0703 366.0781,77.0703 Q364.4219,77.0703 363.0938,76.3672 Q362.0156,75.8047 361.25,74.5859 Q360.5,73.3516 360.5,71.9141 L360.5,70.6016 Q360.5,69.1016 361.1719,67.7891 Q361.8594,66.4766 363.0625,65.7734 Q364.2813,65.0703 365.6406,65.0703 Q366.4688,65.0703 367.1719,65.3203 Q367.8906,65.5703 368.5,66.0703 Z " fill="#000000"/><text fill="#000000" font-family="Segoe UI" font-size="20" lengthAdjust="spacing" textLength="173" x="381.5" y="79.1016">AppCompatActivity</text><line style="stroke:#A80036;stroke-width:1.5;" x1="351.5" x2="556.5" y1="89.1211" y2="89.1211"/><line style="stroke:#A80036;stroke-width:1.5;" x1="351.5" x2="556.5" y1="97.1211" y2="97.1211"/><!--MD5=[b7fe52529ed1db73be7e419ab94beb2e]
class com.app.robot.fragments.LaserControlFragment--><rect codeLine="6" fill="#FEFECE" filter="url(#f1okdgjtq51eot)" height="411.7227" id="com.app.robot.fragments.LaserControlFragment" style="stroke:#A80036;stroke-width:1.5;" width="381" x="1596.5" y="190.5195"/><ellipse cx="1685.5" cy="208.8203" fill="#ADD1B2" rx="12" ry="12" style="stroke:#A80036;stroke-width:1.0;"/><path d="M1687.5,204.0703 Q1687.7031,203.5703 1687.9375,203.3203 Q1688.1719,203.0703 1688.4375,203.0703 Q1688.9063,203.0703 1689.2031,203.3516 Q1689.5,203.6328 1689.5,204.2891 L1689.5,205.8516 Q1689.5,206.5078 1689.2188,206.7891 Q1688.9375,207.0703 1688.5,207.0703 Q1688.1094,207.0703 1687.8594,206.8984 Q1687.6094,206.7266 1687.5,206.2734 Q1687.4375,205.9609 1687.25,205.7891 Q1686.8594,205.4609 1686.1875,205.2734 Q1685.5156,205.0703 1684.8438,205.0703 Q1684,205.0703 1683.2813,205.4453 Q1682.5781,205.8047 1682.0313,206.6484 Q1681.5,207.4766 1681.5,208.6328 L1681.5,209.8672 Q1681.75,211.2422 1682.5938,212.1641 Q1683.4375,213.0703 1685.1406,213.0703 Q1686.1719,213.0703 1686.625,212.6641 Q1687.2969,212.4297 1687.7656,211.7422 Q1688.0469,211.3203 1688.2031,211.1953 Q1688.375,211.0703 1688.5781,211.0703 Q1688.9375,211.0703 1689.2188,211.4141 Q1689.5,211.7578 1689.5,212.2266 Q1689.5,212.6953 1689.1094,213.2422 Q1688.5625,214.0234 1687.6875,214.4609 Q1686.5,215.0703 1685.0781,215.0703 Q1683.4219,215.0703 1682.0938,214.3672 Q1681.0156,213.8047 1680.25,212.5859 Q1679.5,211.3516 1679.5,209.9141 L1679.5,208.6016 Q1679.5,207.1016 1680.1719,205.7891 Q1680.8594,204.4766 1682.0625,203.7734 Q1683.2813,203.0703 1684.6406,203.0703 Q1685.4688,203.0703 1686.1719,203.3203 Q1686.8906,203.5703 1687.5,204.0703 Z " fill="#000000"/><text fill="#000000" font-family="Segoe UI" font-size="20" lengthAdjust="spacing" textLength="194" x="1707.5" y="217.1016">LaserControlFragment</text><line style="stroke:#A80036;stroke-width:1.5;" x1="1597.5" x2="1976.5" y1="227.1211" y2="227.1211"/><rect fill="none" height="6" style="stroke:#C82930;stroke-width:1.0;" width="6" x="1604.5" y="235.1211"/><text fill="#000000" font-family="Segoe UI" font-size="15" lengthAdjust="spacing" textLength="164" x="1617.5" y="247.3076">DatabaseReference laser</text><rect fill="none" height="6" style="stroke:#C82930;stroke-width:1.0;" width="6" x="1604.5" y="255.0723"/><text fill="#000000" font-family="Segoe UI" font-size="15" lengthAdjust="spacing" textLength="191" x="1617.5" y="267.2588">DatabaseReference laser_ctrl</text><rect fill="none" height="6" style="stroke:#C82930;stroke-width:1.0;" width="6" x="1604.5" y="275.0234"/><text fill="#000000" font-family="Segoe UI" font-size="15" lengthAdjust="spacing" textLength="183" x="1617.5" y="287.21">ToggleButton toggleButton</text><rect fill="none" height="6" style="stroke:#C82930;stroke-width:1.0;" width="6" x="1604.5" y="294.9746"/><text fill="#000000" font-family="Segoe UI" font-size="15" lengthAdjust="spacing" textLength="121" x="1617.5" y="307.1611">TextView textView</text><rect fill="none" height="6" style="stroke:#C82930;stroke-width:1.0;" width="6" x="1604.5" y="314.9258"/><text fill="#000000" font-family="Segoe UI" font-size="15" lengthAdjust="spacing" textLength="182" x="1617.5" y="327.1123">TextView textViewDirection</text><rect fill="none" height="6" style="stroke:#C82930;stroke-width:1.0;" width="6" x="1604.5" y="334.877"/><text fill="#000000" font-family="Segoe UI" font-size="15" lengthAdjust="spacing" textLength="120" x="1617.5" y="347.0635">TextView xDisplay</text><rect fill="none" height="6" style="stroke:#C82930;stroke-width:1.0;" width="6" x="1604.5" y="354.8281"/><text fill="#000000" font-family="Segoe UI" font-size="15" lengthAdjust="spacing" textLength="71" x="1617.5" y="367.0146">int x_angle</text><rect fill="none" height="6" style="stroke:#C82930;stroke-width:1.0;" width="6" x="1604.5" y="374.7793"/><text fill="#000000" font-family="Segoe UI" font-size="15" lengthAdjust="spacing" textLength="71" x="1617.5" y="386.9658">int y_angle</text><line style="stroke:#A80036;stroke-width:1.5;" x1="1597.5" x2="1976.5" y1="394.7305" y2="394.7305"/><ellipse cx="1607.5" cy="405.7305" fill="#84BE84" rx="3" ry="3" style="stroke:#038048;stroke-width:1.0;"/><text fill="#000000" font-family="Segoe UI" font-size="15" lengthAdjust="spacing" textLength="354" x="1617.5" y="414.917">View onCreateView(LayoutInflater,ViewGroup,Bundle)</text><ellipse cx="1607.5" cy="425.6816" fill="#84BE84" rx="3" ry="3" style="stroke:#038048;stroke-width:1.0;"/><text fill="#000000" font-family="Segoe UI" font-size="15" lengthAdjust="spacing" textLength="245" x="1617.5" y="434.8682">boolean onTouch(View,MotionEvent)</text><ellipse cx="1607.5" cy="445.6328" fill="#84BE84" rx="3" ry="3" style="stroke:#038048;stroke-width:1.0;"/><text fill="#000000" font-family="Segoe UI" font-size="15" lengthAdjust="spacing" textLength="351" x="1617.5" y="454.8193">void onCheckedChanged(CompoundButton,boolean)</text><ellipse cx="1607.5" cy="465.584" fill="#84BE84" rx="3" ry="3" style="stroke:#038048;stroke-width:1.0;"/><text fill="#000000" font-family="Segoe UI" font-size="15" lengthAdjust="spacing" textLength="235" x="1617.5" y="474.7705">void onDataChange(DataSnapshot)</text><ellipse cx="1607.5" cy="485.5352" fill="#84BE84" rx="3" ry="3" style="stroke:#038048;stroke-width:1.0;"/><text fill="#000000" font-family="Segoe UI" font-size="15" lengthAdjust="spacing" textLength="220" x="1617.5" y="494.7217">void onCancelled(DatabaseError)</text><ellipse cx="1607.5" cy="505.4863" fill="#84BE84" rx="3" ry="3" style="stroke:#038048;stroke-width:1.0;"/><text fill="#000000" font-family="Segoe UI" font-size="15" lengthAdjust="spacing" textLength="123" x="1617.5" y="514.6729">void onClick(View)</text><rect fill="#F24D5C" height="6" style="stroke:#C82930;stroke-width:1.0;" width="6" x="1604.5" y="522.4375"/><text fill="#000000" font-family="Segoe UI" font-size="15" lengthAdjust="spacing" textLength="144" x="1617.5" y="534.624">void initServos(int,int)</text><rect fill="#F24D5C" height="6" style="stroke:#C82930;stroke-width:1.0;" width="6" x="1604.5" y="542.3887"/><text fill="#000000" font-family="Segoe UI" font-size="15" lengthAdjust="spacing" textLength="176" x="1617.5" y="554.5752">void updateDisplay(int,int)</text><rect fill="#F24D5C" height="6" style="stroke:#C82930;stroke-width:1.0;" width="6" x="1604.5" y="562.3398"/><text fill="#000000" font-family="Segoe UI" font-size="15" lengthAdjust="spacing" textLength="219" x="1617.5" y="574.5264">void rotateXServo(boolean,View)</text><rect fill="#F24D5C" height="6" style="stroke:#C82930;stroke-width:1.0;" width="6" x="1604.5" y="582.291"/><text fill="#000000" font-family="Segoe UI" font-size="15" lengthAdjust="spacing" textLength="218" x="1617.5" y="594.4775">void rotateYServo(boolean,View)</text><!--MD5=[576ac8abbcffb4f8dccddbb900075e23]
class com.app.robot.fragments.MotorsControlFragment--><rect codeLine="27" fill="#FEFECE" filter="url(#f1okdgjtq51eot)" height="152.3574" id="com.app.robot.fragments.MotorsControlFragment" style="stroke:#A80036;stroke-width:1.5;" width="396" x="2013" y="320.5195"/><ellipse cx="2099.5" cy="338.8203" fill="#ADD1B2" rx="12" ry="12" style="stroke:#A80036;stroke-width:1.0;"/><path d="M2101.5,334.0703 Q2101.7031,333.5703 2101.9375,333.3203 Q2102.1719,333.0703 2102.4375,333.0703 Q2102.9063,333.0703 2103.2031,333.3516 Q2103.5,333.6328 2103.5,334.2891 L2103.5,335.8516 Q2103.5,336.5078 2103.2188,336.7891 Q2102.9375,337.0703 2102.5,337.0703 Q2102.1094,337.0703 2101.8594,336.8984 Q2101.6094,336.7266 2101.5,336.2734 Q2101.4375,335.9609 2101.25,335.7891 Q2100.8594,335.4609 2100.1875,335.2734 Q2099.5156,335.0703 2098.8438,335.0703 Q2098,335.0703 2097.2813,335.4453 Q2096.5781,335.8047 2096.0313,336.6484 Q2095.5,337.4766 2095.5,338.6328 L2095.5,339.8672 Q2095.75,341.2422 2096.5938,342.1641 Q2097.4375,343.0703 2099.1406,343.0703 Q2100.1719,343.0703 2100.625,342.6641 Q2101.2969,342.4297 2101.7656,341.7422 Q2102.0469,341.3203 2102.2031,341.1953 Q2102.375,341.0703 2102.5781,341.0703 Q2102.9375,341.0703 2103.2188,341.4141 Q2103.5,341.7578 2103.5,342.2266 Q2103.5,342.6953 2103.1094,343.2422 Q2102.5625,344.0234 2101.6875,344.4609 Q2100.5,345.0703 2099.0781,345.0703 Q2097.4219,345.0703 2096.0938,344.3672 Q2095.0156,343.8047 2094.25,342.5859 Q2093.5,341.3516 2093.5,339.9141 L2093.5,338.6016 Q2093.5,337.1016 2094.1719,335.7891 Q2094.8594,334.4766 2096.0625,333.7734 Q2097.2813,333.0703 2098.6406,333.0703 Q2099.4688,333.0703 2100.1719,333.3203 Q2100.8906,333.5703 2101.5,334.0703 Z " fill="#000000"/><text fill="#000000" font-family="Segoe UI" font-size="20" lengthAdjust="spacing" textLength="214" x="2121.5" y="347.1016">MotorsControlFragment</text><line style="stroke:#A80036;stroke-width:1.5;" x1="2014" x2="2408" y1="357.1211" y2="357.1211"/><rect fill="none" height="6" style="stroke:#C82930;stroke-width:1.0;" width="6" x="2021" y="365.1211"/><text fill="#000000" font-family="Segoe UI" font-size="15" lengthAdjust="spacing" textLength="136" x="2034" y="377.3076">TextView speedView</text><rect fill="none" height="6" style="stroke:#C82930;stroke-width:1.0;" width="6" x="2021" y="385.0723"/><text fill="#000000" font-family="Segoe UI" font-size="15" lengthAdjust="spacing" textLength="211" x="2034" y="397.2588">DatabaseReference motorNode</text><line style="stroke:#A80036;stroke-width:1.5;" x1="2014" x2="2408" y1="405.0234" y2="405.0234"/><ellipse cx="2024" cy="416.0234" fill="#84BE84" rx="3" ry="3" style="stroke:#038048;stroke-width:1.0;"/><text fill="#000000" font-family="Segoe UI" font-size="15" lengthAdjust="spacing" textLength="354" x="2034" y="425.21">View onCreateView(LayoutInflater,ViewGroup,Bundle)</text><ellipse cx="2024" cy="435.9746" fill="#84BE84" rx="3" ry="3" style="stroke:#038048;stroke-width:1.0;"/><text fill="#000000" font-family="Segoe UI" font-size="15" lengthAdjust="spacing" textLength="245" x="2034" y="445.1611">boolean onTouch(View,MotionEvent)</text><rect fill="#F24D5C" height="6" style="stroke:#C82930;stroke-width:1.0;" width="6" x="2021" y="452.9258"/><text fill="#000000" font-family="Segoe UI" font-size="15" lengthAdjust="spacing" textLength="369" x="2034" y="465.1123">void writeToMotors(boolean,boolean,boolean,boolean)</text><!--MD5=[4ef56d7331cec24f2808280c59a4eb97]
class androidx.fragment.app.Fragment--><rect fill="#FEFECE" filter="url(#f1okdgjtq51eot)" height="52.6016" id="androidx.fragment.app.Fragment" style="stroke:#A80036;stroke-width:1.5;" width="118" x="1479" y="52.5195"/><ellipse cx="1495" cy="70.8203" fill="#ADD1B2" rx="12" ry="12" style="stroke:#A80036;stroke-width:1.0;"/><path d="M1497,66.0703 Q1497.2031,65.5703 1497.4375,65.3203 Q1497.6719,65.0703 1497.9375,65.0703 Q1498.4063,65.0703 1498.7031,65.3516 Q1499,65.6328 1499,66.2891 L1499,67.8516 Q1499,68.5078 1498.7188,68.7891 Q1498.4375,69.0703 1498,69.0703 Q1497.6094,69.0703 1497.3594,68.8984 Q1497.1094,68.7266 1497,68.2734 Q1496.9375,67.9609 1496.75,67.7891 Q1496.3594,67.4609 1495.6875,67.2734 Q1495.0156,67.0703 1494.3438,67.0703 Q1493.5,67.0703 1492.7813,67.4453 Q1492.0781,67.8047 1491.5313,68.6484 Q1491,69.4766 1491,70.6328 L1491,71.8672 Q1491.25,73.2422 1492.0938,74.1641 Q1492.9375,75.0703 1494.6406,75.0703 Q1495.6719,75.0703 1496.125,74.6641 Q1496.7969,74.4297 1497.2656,73.7422 Q1497.5469,73.3203 1497.7031,73.1953 Q1497.875,73.0703 1498.0781,73.0703 Q1498.4375,73.0703 1498.7188,73.4141 Q1499,73.7578 1499,74.2266 Q1499,74.6953 1498.6094,75.2422 Q1498.0625,76.0234 1497.1875,76.4609 Q1496,77.0703 1494.5781,77.0703 Q1492.9219,77.0703 1491.5938,76.3672 Q1490.5156,75.8047 1489.75,74.5859 Q1489,73.3516 1489,71.9141 L1489,70.6016 Q1489,69.1016 1489.6719,67.7891 Q1490.3594,66.4766 1491.5625,65.7734 Q1492.7813,65.0703 1494.1406,65.0703 Q1494.9688,65.0703 1495.6719,65.3203 Q1496.3906,65.5703 1497,66.0703 Z " fill="#000000"/><text fill="#000000" font-family="Segoe UI" font-size="20" lengthAdjust="spacing" textLength="84" x="1510" y="79.1016">Fragment</text><line style="stroke:#A80036;stroke-width:1.5;" x1="1480" x2="1596" y1="89.1211" y2="89.1211"/><line style="stroke:#A80036;stroke-width:1.5;" x1="1480" x2="1596" y1="97.1211" y2="97.1211"/><!--MD5=[e3f15e8dfdec7302c02b8127328f7820]
class android.view.View.OnTouchListener--><rect fill="#FEFECE" filter="url(#f1okdgjtq51eot)" height="52.6016" id="android.view.View.OnTouchListener" style="stroke:#A80036;stroke-width:1.5;" width="179" x="2159.5" y="52.5195"/><ellipse cx="2175.5" cy="70.8203" fill="#B4A7E5" rx="12" ry="12" style="stroke:#A80036;stroke-width:1.0;"/><path d="M2176.5,66.8203 L2176.5,74.8203 L2178.5,74.8203 L2178.8906,74.8203 L2179.5,75.3672 L2179.5,75.8203 L2179.5,76.2734 L2178.8906,76.8203 L2178.5,76.8203 L2172.5,76.8203 L2172.1094,76.8203 L2171.5,76.2734 L2171.5,75.8203 L2171.5,75.3672 L2172.1094,74.8203 L2172.5,74.8203 L2174.5,74.8203 L2174.5,66.8203 L2172.5,66.8203 L2172.1094,66.8203 L2171.5,66.2734 L2171.5,65.8203 L2171.5,65.3672 L2172.1094,64.8203 L2172.5,64.8203 L2178.5,64.8203 L2178.8906,64.8203 L2179.5,65.3672 L2179.5,65.8203 L2179.5,66.2734 L2178.8906,66.8203 L2178.5,66.8203 L2176.5,66.8203 Z " fill="#000000"/><text fill="#000000" font-family="Segoe UI" font-size="20" font-style="italic" lengthAdjust="spacing" textLength="145" x="2190.5" y="79.1016">OnTouchListener</text><line style="stroke:#A80036;stroke-width:1.5;" x1="2160.5" x2="2337.5" y1="89.1211" y2="89.1211"/><line style="stroke:#A80036;stroke-width:1.5;" x1="2160.5" x2="2337.5" y1="97.1211" y2="97.1211"/><!--MD5=[0858b9b1d3aeed662d763a216cd7b05a]
class android.view.View.OnClickListener--><rect fill="#FEFECE" filter="url(#f1okdgjtq51eot)" height="52.6016" id="android.view.View.OnClickListener" style="stroke:#A80036;stroke-width:1.5;" width="168" x="1956" y="52.5195"/><ellipse cx="1972" cy="70.8203" fill="#B4A7E5" rx="12" ry="12" style="stroke:#A80036;stroke-width:1.0;"/><path d="M1973,66.8203 L1973,74.8203 L1975,74.8203 L1975.3906,74.8203 L1976,75.3672 L1976,75.8203 L1976,76.2734 L1975.3906,76.8203 L1975,76.8203 L1969,76.8203 L1968.6094,76.8203 L1968,76.2734 L1968,75.8203 L1968,75.3672 L1968.6094,74.8203 L1969,74.8203 L1971,74.8203 L1971,66.8203 L1969,66.8203 L1968.6094,66.8203 L1968,66.2734 L1968,65.8203 L1968,65.3672 L1968.6094,64.8203 L1969,64.8203 L1975,64.8203 L1975.3906,64.8203 L1976,65.3672 L1976,65.8203 L1976,66.2734 L1975.3906,66.8203 L1975,66.8203 L1973,66.8203 Z " fill="#000000"/><text fill="#000000" font-family="Segoe UI" font-size="20" font-style="italic" lengthAdjust="spacing" textLength="134" x="1987" y="79.1016">OnClickListener</text><line style="stroke:#A80036;stroke-width:1.5;" x1="1957" x2="2123" y1="89.1211" y2="89.1211"/><line style="stroke:#A80036;stroke-width:1.5;" x1="1957" x2="2123" y1="97.1211" y2="97.1211"/><!--MD5=[a3ca8623aa28699b69c6fd73a9f322ba]
class android.view.View.OnCheckedChangeListener--><rect fill="#FEFECE" filter="url(#f1okdgjtq51eot)" height="52.6016" id="android.view.View.OnCheckedChangeListener" style="stroke:#A80036;stroke-width:1.5;" width="267" x="1653.5" y="52.5195"/><ellipse cx="1669.5" cy="70.8203" fill="#B4A7E5" rx="12" ry="12" style="stroke:#A80036;stroke-width:1.0;"/><path d="M1670.5,66.8203 L1670.5,74.8203 L1672.5,74.8203 L1672.8906,74.8203 L1673.5,75.3672 L1673.5,75.8203 L1673.5,76.2734 L1672.8906,76.8203 L1672.5,76.8203 L1666.5,76.8203 L1666.1094,76.8203 L1665.5,76.2734 L1665.5,75.8203 L1665.5,75.3672 L1666.1094,74.8203 L1666.5,74.8203 L1668.5,74.8203 L1668.5,66.8203 L1666.5,66.8203 L1666.1094,66.8203 L1665.5,66.2734 L1665.5,65.8203 L1665.5,65.3672 L1666.1094,64.8203 L1666.5,64.8203 L1672.5,64.8203 L1672.8906,64.8203 L1673.5,65.3672 L1673.5,65.8203 L1673.5,66.2734 L1672.8906,66.8203 L1672.5,66.8203 L1670.5,66.8203 Z " fill="#000000"/><text fill="#000000" font-family="Segoe UI" font-size="20" font-style="italic" lengthAdjust="spacing" textLength="233" x="1684.5" y="79.1016">OnCheckedChangeListener</text><line style="stroke:#A80036;stroke-width:1.5;" x1="1654.5" x2="1919.5" y1="89.1211" y2="89.1211"/><line style="stroke:#A80036;stroke-width:1.5;" x1="1654.5" x2="1919.5" y1="97.1211" y2="97.1211"/><!--MD5=[dd52b93e4b14bf0b530ab05dbee81e31]
class com.google.firebase.database.ValueEventListener--><rect fill="#FEFECE" filter="url(#f1okdgjtq51eot)" height="52.6016" id="com.google.firebase.database.ValueEventListener" style="stroke:#A80036;stroke-width:1.5;" width="196" x="1110" y="52.5195"/><ellipse cx="1126" cy="70.8203" fill="#B4A7E5" rx="12" ry="12" style="stroke:#A80036;stroke-width:1.0;"/><path d="M1127,66.8203 L1127,74.8203 L1129,74.8203 L1129.3906,74.8203 L1130,75.3672 L1130,75.8203 L1130,76.2734 L1129.3906,76.8203 L1129,76.8203 L1123,76.8203 L1122.6094,76.8203 L1122,76.2734 L1122,75.8203 L1122,75.3672 L1122.6094,74.8203 L1123,74.8203 L1125,74.8203 L1125,66.8203 L1123,66.8203 L1122.6094,66.8203 L1122,66.2734 L1122,65.8203 L1122,65.3672 L1122.6094,64.8203 L1123,64.8203 L1129,64.8203 L1129.3906,64.8203 L1130,65.3672 L1130,65.8203 L1130,66.2734 L1129.3906,66.8203 L1129,66.8203 L1127,66.8203 Z " fill="#000000"/><text fill="#000000" font-family="Segoe UI" font-size="20" font-style="italic" lengthAdjust="spacing" textLength="162" x="1141" y="79.1016">ValueEventListener</text><line style="stroke:#A80036;stroke-width:1.5;" x1="1111" x2="1305" y1="89.1211" y2="89.1211"/><line style="stroke:#A80036;stroke-width:1.5;" x1="1111" x2="1305" y1="97.1211" y2="97.1211"/><!--MD5=[ac9fbc66a13eff031c6763a8b9a16ac7]
class com.app.robot.main.MainActivity--><rect codeLine="34" fill="#FEFECE" filter="url(#f1okdgjtq51eot)" height="252.1133" id="com.app.robot.main.MainActivity" style="stroke:#A80036;stroke-width:1.5;" width="286" x="673" y="270.5195"/><ellipse cx="756.5" cy="288.8203" fill="#ADD1B2" rx="12" ry="12" style="stroke:#A80036;stroke-width:1.0;"/><path d="M758.5,284.0703 Q758.7031,283.5703 758.9375,283.3203 Q759.1719,283.0703 759.4375,283.0703 Q759.9063,283.0703 760.2031,283.3516 Q760.5,283.6328 760.5,284.2891 L760.5,285.8516 Q760.5,286.5078 760.2188,286.7891 Q759.9375,287.0703 759.5,287.0703 Q759.1094,287.0703 758.8594,286.8984 Q758.6094,286.7266 758.5,286.2734 Q758.4375,285.9609 758.25,285.7891 Q757.8594,285.4609 757.1875,285.2734 Q756.5156,285.0703 755.8438,285.0703 Q755,285.0703 754.2813,285.4453 Q753.5781,285.8047 753.0313,286.6484 Q752.5,287.4766 752.5,288.6328 L752.5,289.8672 Q752.75,291.2422 753.5938,292.1641 Q754.4375,293.0703 756.1406,293.0703 Q757.1719,293.0703 757.625,292.6641 Q758.2969,292.4297 758.7656,291.7422 Q759.0469,291.3203 759.2031,291.1953 Q759.375,291.0703 759.5781,291.0703 Q759.9375,291.0703 760.2188,291.4141 Q760.5,291.7578 760.5,292.2266 Q760.5,292.6953 760.1094,293.2422 Q759.5625,294.0234 758.6875,294.4609 Q757.5,295.0703 756.0781,295.0703 Q754.4219,295.0703 753.0938,294.3672 Q752.0156,293.8047 751.25,292.5859 Q750.5,291.3516 750.5,289.9141 L750.5,288.6016 Q750.5,287.1016 751.1719,285.7891 Q751.8594,284.4766 753.0625,283.7734 Q754.2813,283.0703 755.6406,283.0703 Q756.4688,283.0703 757.1719,283.3203 Q757.8906,283.5703 758.5,284.0703 Z " fill="#000000"/><text fill="#000000" font-family="Segoe UI" font-size="20" lengthAdjust="spacing" textLength="110" x="778.5" y="297.1016">MainActivity</text><line style="stroke:#A80036;stroke-width:1.5;" x1="674" x2="958" y1="307.1211" y2="307.1211"/><rect fill="none" height="6" style="stroke:#C82930;stroke-width:1.0;" width="6" x="681" y="315.1211"/><text fill="#000000" font-family="Segoe UI" font-size="15" lengthAdjust="spacing" textLength="187" x="694" y="327.3076">DatabaseReference laser_hit</text><rect fill="none" height="6" style="stroke:#C82930;stroke-width:1.0;" width="6" x="681" y="335.0723"/><text fill="#000000" font-family="Segoe UI" font-size="15" lengthAdjust="spacing" textLength="131" x="694" y="347.2588">HitDialog hitDialog</text><rect fill="none" height="6" style="stroke:#C82930;stroke-width:1.0;" width="6" x="681" y="355.0234"/><text fill="#000000" font-family="Segoe UI" font-size="15" lengthAdjust="spacing" textLength="158" x="694" y="367.21">ViewPager2 viewPager2</text><line style="stroke:#A80036;stroke-width:1.5;" x1="674" x2="958" y1="374.9746" y2="374.9746"/><polygon fill="#FFFF44" points="684,380.9746,688,384.9746,684,388.9746,680,384.9746" style="stroke:#B38D22;stroke-width:1.0;"/><text fill="#000000" font-family="Segoe UI" font-size="15" lengthAdjust="spacing" textLength="149" x="694" y="395.1611">void onCreate(Bundle)</text><ellipse cx="684" cy="405.9258" fill="#84BE84" rx="3" ry="3" style="stroke:#038048;stroke-width:1.0;"/><text fill="#000000" font-family="Segoe UI" font-size="15" lengthAdjust="spacing" textLength="235" x="694" y="415.1123">void onDataChange(DataSnapshot)</text><ellipse cx="684" cy="425.877" fill="#84BE84" rx="3" ry="3" style="stroke:#038048;stroke-width:1.0;"/><text fill="#000000" font-family="Segoe UI" font-size="15" lengthAdjust="spacing" textLength="220" x="694" y="435.0635">void onCancelled(DatabaseError)</text><rect fill="#F24D5C" height="6" style="stroke:#C82930;stroke-width:1.0;" width="6" x="681" y="442.8281"/><text fill="#000000" font-family="Segoe UI" font-size="15" lengthAdjust="spacing" textLength="122" x="694" y="455.0146">void openDialog()</text><ellipse cx="684" cy="465.7793" fill="#84BE84" rx="3" ry="3" style="stroke:#038048;stroke-width:1.0;"/><text fill="#000000" font-family="Segoe UI" font-size="15" lengthAdjust="spacing" textLength="239" x="694" y="474.9658">void onTabSelected(TabLayout.Tab)</text><ellipse cx="684" cy="485.7305" fill="#84BE84" rx="3" ry="3" style="stroke:#038048;stroke-width:1.0;"/><text fill="#000000" font-family="Segoe UI" font-size="15" lengthAdjust="spacing" textLength="255" x="698" y="494.917">void onTabUnselected(TabLayout.Tab)</text><ellipse cx="684" cy="505.6816" fill="#84BE84" rx="3" ry="3" style="stroke:#038048;stroke-width:1.0;"/><text fill="#000000" font-family="Segoe UI" font-size="15" lengthAdjust="spacing" textLength="254" x="694" y="514.8682">void onTabReselected(TabLayout.Tab)</text><!--MD5=[db0dab21efe79d5ea9bc385dd51fda74]
class com.google.android.material.tabs.TabLayout.OnTabSelectedListener--><rect fill="#FEFECE" filter="url(#f1okdgjtq51eot)" height="52.6016" id="com.google.android.material.tabs.TabLayout.OnTabSelectedListener" style="stroke:#A80036;stroke-width:1.5;" width="230" x="701" y="52.5195"/><ellipse cx="717" cy="70.8203" fill="#B4A7E5" rx="12" ry="12" style="stroke:#A80036;stroke-width:1.0;"/><path d="M718,66.8203 L718,74.8203 L720,74.8203 L720.3906,74.8203 L721,75.3672 L721,75.8203 L721,76.2734 L720.3906,76.8203 L720,76.8203 L714,76.8203 L713.6094,76.8203 L713,76.2734 L713,75.8203 L713,75.3672 L713.6094,74.8203 L714,74.8203 L716,74.8203 L716,66.8203 L714,66.8203 L713.6094,66.8203 L713,66.2734 L713,65.8203 L713,65.3672 L713.6094,64.8203 L714,64.8203 L720,64.8203 L720.3906,64.8203 L721,65.3672 L721,65.8203 L721,66.2734 L720.3906,66.8203 L720,66.8203 L718,66.8203 Z " fill="#000000"/><text fill="#000000" font-family="Segoe UI" font-size="20" font-style="italic" lengthAdjust="spacing" textLength="196" x="732" y="79.1016">OnTabSelectedListener</text><line style="stroke:#A80036;stroke-width:1.5;" x1="702" x2="930" y1="89.1211" y2="89.1211"/><line style="stroke:#A80036;stroke-width:1.5;" x1="702" x2="930" y1="97.1211" y2="97.1211"/><!--MD5=[59dd476fb0f73446c450508594f07f06]
class com.app.robot.adapters.PageViewAdapter--><rect codeLine="46" fill="#FEFECE" filter="url(#f1okdgjtq51eot)" height="112.4551" id="com.app.robot.adapters.PageViewAdapter" style="stroke:#A80036;stroke-width:1.5;" width="225" x="2465.5" y="340.5195"/><ellipse cx="2497.7" cy="358.8203" fill="#ADD1B2" rx="12" ry="12" style="stroke:#A80036;stroke-width:1.0;"/><path d="M2499.7,354.0703 Q2499.9031,353.5703 2500.1375,353.3203 Q2500.3719,353.0703 2500.6375,353.0703 Q2501.1063,353.0703 2501.4031,353.3516 Q2501.7,353.6328 2501.7,354.2891 L2501.7,355.8516 Q2501.7,356.5078 2501.4188,356.7891 Q2501.1375,357.0703 2500.7,357.0703 Q2500.3094,357.0703 2500.0594,356.8984 Q2499.8094,356.7266 2499.7,356.2734 Q2499.6375,355.9609 2499.45,355.7891 Q2499.0594,355.4609 2498.3875,355.2734 Q2497.7156,355.0703 2497.0438,355.0703 Q2496.2,355.0703 2495.4813,355.4453 Q2494.7781,355.8047 2494.2313,356.6484 Q2493.7,357.4766 2493.7,358.6328 L2493.7,359.8672 Q2493.95,361.2422 2494.7938,362.1641 Q2495.6375,363.0703 2497.3406,363.0703 Q2498.3719,363.0703 2498.825,362.6641 Q2499.4969,362.4297 2499.9656,361.7422 Q2500.2469,361.3203 2500.4031,361.1953 Q2500.575,361.0703 2500.7781,361.0703 Q2501.1375,361.0703 2501.4188,361.4141 Q2501.7,361.7578 2501.7,362.2266 Q2501.7,362.6953 2501.3094,363.2422 Q2500.7625,364.0234 2499.8875,364.4609 Q2498.7,365.0703 2497.2781,365.0703 Q2495.6219,365.0703 2494.2938,364.3672 Q2493.2156,363.8047 2492.45,362.5859 Q2491.7,361.3516 2491.7,359.9141 L2491.7,358.6016 Q2491.7,357.1016 2492.3719,355.7891 Q2493.0594,354.4766 2494.2625,353.7734 Q2495.4813,353.0703 2496.8406,353.0703 Q2497.6688,353.0703 2498.3719,353.3203 Q2499.0906,353.5703 2499.7,354.0703 Z " fill="#000000"/><text fill="#000000" font-family="Segoe UI" font-size="20" lengthAdjust="spacing" textLength="155" x="2516.3" y="367.1016">PageViewAdapter</text><line style="stroke:#A80036;stroke-width:1.5;" x1="2466.5" x2="2689.5" y1="377.1211" y2="377.1211"/><polygon fill="none" points="2476.5,384.1211,2472.5,390.1211,2480.5,390.1211" style="stroke:#1963A0;stroke-width:1.0;"/><text fill="#000000" font-family="Segoe UI" font-size="15" lengthAdjust="spacing" textLength="135" x="2486.5" y="397.3076">int numOfFragments</text><line style="stroke:#A80036;stroke-width:1.5;" x1="2466.5" x2="2689.5" y1="405.0723" y2="405.0723"/><ellipse cx="2476.5" cy="416.0723" fill="#84BE84" rx="3" ry="3" style="stroke:#038048;stroke-width:1.0;"/><text fill="#000000" font-family="Segoe UI" font-size="15" lengthAdjust="spacing" textLength="198" x="2486.5" y="425.2588">Fragment createFragment(int)</text><ellipse cx="2476.5" cy="436.0234" fill="#84BE84" rx="3" ry="3" style="stroke:#038048;stroke-width:1.0;"/><text fill="#000000" font-family="Segoe UI" font-size="15" lengthAdjust="spacing" textLength="122" x="2486.5" y="445.21">int getItemCount()</text><!--MD5=[4049e0ee7b06732a05ec2ff604ef9779]
class androidx.viewpager2.adapter.FragmentStateAdapter--><rect fill="#FEFECE" filter="url(#f1okdgjtq51eot)" height="52.6016" id="androidx.viewpager2.adapter.FragmentStateAdapter" style="stroke:#A80036;stroke-width:1.5;" width="234" x="2461" y="52.5195"/><ellipse cx="2477" cy="70.8203" fill="#ADD1B2" rx="12" ry="12" style="stroke:#A80036;stroke-width:1.0;"/><path d="M2479,66.0703 Q2479.2031,65.5703 2479.4375,65.3203 Q2479.6719,65.0703 2479.9375,65.0703 Q2480.4063,65.0703 2480.7031,65.3516 Q2481,65.6328 2481,66.2891 L2481,67.8516 Q2481,68.5078 2480.7188,68.7891 Q2480.4375,69.0703 2480,69.0703 Q2479.6094,69.0703 2479.3594,68.8984 Q2479.1094,68.7266 2479,68.2734 Q2478.9375,67.9609 2478.75,67.7891 Q2478.3594,67.4609 2477.6875,67.2734 Q2477.0156,67.0703 2476.3438,67.0703 Q2475.5,67.0703 2474.7813,67.4453 Q2474.0781,67.8047 2473.5313,68.6484 Q2473,69.4766 2473,70.6328 L2473,71.8672 Q2473.25,73.2422 2474.0938,74.1641 Q2474.9375,75.0703 2476.6406,75.0703 Q2477.6719,75.0703 2478.125,74.6641 Q2478.7969,74.4297 2479.2656,73.7422 Q2479.5469,73.3203 2479.7031,73.1953 Q2479.875,73.0703 2480.0781,73.0703 Q2480.4375,73.0703 2480.7188,73.4141 Q2481,73.7578 2481,74.2266 Q2481,74.6953 2480.6094,75.2422 Q2480.0625,76.0234 2479.1875,76.4609 Q2478,77.0703 2476.5781,77.0703 Q2474.9219,77.0703 2473.5938,76.3672 Q2472.5156,75.8047 2471.75,74.5859 Q2471,73.3516 2471,71.9141 L2471,70.6016 Q2471,69.1016 2471.6719,67.7891 Q2472.3594,66.4766 2473.5625,65.7734 Q2474.7813,65.0703 2476.1406,65.0703 Q2476.9688,65.0703 2477.6719,65.3203 Q2478.3906,65.5703 2479,66.0703 Z " fill="#000000"/><text fill="#000000" font-family="Segoe UI" font-size="20" lengthAdjust="spacing" textLength="200" x="2492" y="79.1016">FragmentStateAdapter</text><line style="stroke:#A80036;stroke-width:1.5;" x1="2462" x2="2694" y1="89.1211" y2="89.1211"/><line style="stroke:#A80036;stroke-width:1.5;" x1="2462" x2="2694" y1="97.1211" y2="97.1211"/><!--MD5=[a0d22a33489df6fbbf989ba633ca8775]
reverse link androidx.appcompat.app.AppCompatDialogFragment to com.app.robot.dialogs.HitDialog--><path d="M174,125.7295 C174,189.0695 174,302.2195 174,359.7695 " fill="none" id="androidx.appcompat.app.AppCompatDialogFragment-backto-com.app.robot.dialogs.HitDialog" style="stroke:#A80036;stroke-width:1.0;"/><polygon fill="none" points="167,125.5695,174,105.5695,181,125.5695,167,125.5695" style="stroke:#A80036;stroke-width:1.0;"/><!--MD5=[e671ff104063c2e8985fdb258dc28994]
reverse link androidx.fragment.app.Fragment to com.app.robot.fragments.LaserControlFragment--><path d="M1570.7,121.4495 C1585.64,140.3795 1604.55,164.3395 1624.94,190.1795 " fill="none" id="androidx.fragment.app.Fragment-backto-com.app.robot.fragments.LaserControlFragment" style="stroke:#A80036;stroke-width:1.0;"/><polygon fill="none" points="1565.06,125.6095,1558.17,105.5695,1576.05,116.9295,1565.06,125.6095" style="stroke:#A80036;stroke-width:1.0;"/><!--MD5=[80534bdeb3a96552871ba4ecd8b5bd0e]
reverse link android.view.View.OnTouchListener to com.app.robot.fragments.LaserControlFragment--><path d="M2185.49,114.1495 C2171.52,120.2995 2156.54,125.8995 2142,129.5195 C2110.47,137.3695 2024.94,122.7395 1996,137.5195 C1969.56,151.0295 1945.31,169.5395 1923.42,190.4995 " fill="none" id="android.view.View.OnTouchListener-backto-com.app.robot.fragments.LaserControlFragment" style="stroke:#A80036;stroke-width:1.0;stroke-dasharray:7.0,7.0;"/><polygon fill="none" points="2182.71,107.7195,2203.79,105.5595,2188.66,120.3995,2182.71,107.7195" style="stroke:#A80036;stroke-width:1.0;"/><!--MD5=[cc188d80a373c43f2860c77af2b6043f]
reverse link android.view.View.OnClickListener to com.app.robot.fragments.LaserControlFragment--><path d="M2006.78,121.4495 C1991.6,140.3795 1972.38,164.3395 1951.66,190.1795 " fill="none" id="android.view.View.OnClickListener-backto-com.app.robot.fragments.LaserControlFragment" style="stroke:#A80036;stroke-width:1.0;stroke-dasharray:7.0,7.0;"/><polygon fill="none" points="2001.54,116.7995,2019.51,105.5695,2012.46,125.5495,2001.54,116.7995" style="stroke:#A80036;stroke-width:1.0;"/><!--MD5=[daf3b290f4ffb65a22c431006ecd299a]
reverse link android.view.View.OnCheckedChangeListener to com.app.robot.fragments.LaserControlFragment--><path d="M1787,125.5795 C1787,143.8095 1787,166.1895 1787,190.1795 " fill="none" id="android.view.View.OnCheckedChangeListener-backto-com.app.robot.fragments.LaserControlFragment" style="stroke:#A80036;stroke-width:1.0;stroke-dasharray:7.0,7.0;"/><polygon fill="none" points="1780,125.5695,1787,105.5695,1794,125.5695,1780,125.5695" style="stroke:#A80036;stroke-width:1.0;"/><!--MD5=[e7ef352dc548460a2ee52c3694646cfa]
reverse link com.google.firebase.database.ValueEventListener to com.app.robot.fragments.LaserControlFragment--><path d="M1272.47,115.1495 C1350.27,157.5395 1484.56,230.7195 1596.45,291.6895 " fill="none" id="com.google.firebase.database.ValueEventListener-backto-com.app.robot.fragments.LaserControlFragment" style="stroke:#A80036;stroke-width:1.0;stroke-dasharray:7.0,7.0;"/><polygon fill="none" points="1269.1,121.2895,1254.89,105.5695,1275.8,108.9895,1269.1,121.2895" style="stroke:#A80036;stroke-width:1.0;"/><!--MD5=[419516cea344284a7f03e7f7ddb5e50b]
reverse link androidx.fragment.app.Fragment to com.app.robot.fragments.MotorsControlFragment--><path d="M1597.16,114.8395 C1609.91,120.8395 1623.59,126.1995 1637,129.5195 C1675.62,139.0895 1959.14,120.2795 1995,137.5195 C2074.63,175.7995 2135.57,258.8995 2172.1,320.5095 " fill="none" id="androidx.fragment.app.Fragment-backto-com.app.robot.fragments.MotorsControlFragment" style="stroke:#A80036;stroke-width:1.0;"/><polygon fill="none" points="1593.96,121.0695,1579.29,105.7795,1600.29,108.5895,1593.96,121.0695" style="stroke:#A80036;stroke-width:1.0;"/><!--MD5=[0bef2d940b9346fe939f506eb0c3210a]
reverse link android.view.View.OnTouchListener to com.app.robot.fragments.MotorsControlFragment--><path d="M2243.52,125.5595 C2237.38,176.4695 2227.36,259.6895 2220.06,320.2995 " fill="none" id="android.view.View.OnTouchListener-backto-com.app.robot.fragments.MotorsControlFragment" style="stroke:#A80036;stroke-width:1.0;stroke-dasharray:7.0,7.0;"/><polygon fill="none" points="2236.58,124.5895,2245.92,105.5695,2250.48,126.2695,2236.58,124.5895" style="stroke:#A80036;stroke-width:1.0;"/><!--MD5=[aba6a56e7b2ac940d9f3df6dc1219389]
reverse link androidx.appcompat.app.AppCompatActivity to com.app.robot.main.MainActivity--><path d="M498.68,118.9595 C542.12,156.8195 610.44,216.3695 672.59,270.5295 " fill="none" id="androidx.appcompat.app.AppCompatActivity-backto-com.app.robot.main.MainActivity" style="stroke:#A80036;stroke-width:1.0;"/><polygon fill="none" points="493.8,123.9895,483.32,105.5695,502.99,113.4295,493.8,123.9895" style="stroke:#A80036;stroke-width:1.0;"/><!--MD5=[a35515e31deedfba1a5490f5ebf2162e]
reverse link com.google.firebase.database.ValueEventListener to com.app.robot.main.MainActivity--><path d="M1160.62,118.1495 C1110.85,158.2095 1030.11,223.1895 959.3,280.1895 " fill="none" id="com.google.firebase.database.ValueEventListener-backto-com.app.robot.main.MainActivity" style="stroke:#A80036;stroke-width:1.0;stroke-dasharray:7.0,7.0;"/><polygon fill="none" points="1156.28,112.6595,1176.25,105.5695,1165.06,123.5595,1156.28,112.6595" style="stroke:#A80036;stroke-width:1.0;"/><!--MD5=[89a508e21c4ae51ef92c6839271c3e00]
reverse link com.google.android.material.tabs.TabLayout.OnTabSelectedListener to com.app.robot.main.MainActivity--><path d="M816,125.6295 C816,163.4795 816,219.1795 816,270.1595 " fill="none" id="com.google.android.material.tabs.TabLayout.OnTabSelectedListener-backto-com.app.robot.main.MainActivity" style="stroke:#A80036;stroke-width:1.0;stroke-dasharray:7.0,7.0;"/><polygon fill="none" points="809,125.5695,816,105.5695,823,125.5695,809,125.5695" style="stroke:#A80036;stroke-width:1.0;"/><!--MD5=[d8ee3e2baf98a7f32a0c0974d2a5fc69]
reverse link androidx.viewpager2.adapter.FragmentStateAdapter to com.app.robot.adapters.PageViewAdapter--><path d="M2578,125.9295 C2578,182.8095 2578,279.6295 2578,340.4495 " fill="none" id="androidx.viewpager2.adapter.FragmentStateAdapter-backto-com.app.robot.adapters.PageViewAdapter" style="stroke:#A80036;stroke-width:1.0;"/><polygon fill="none" points="2571,125.5695,2578,105.5695,2585,125.5695,2571,125.5695" style="stroke:#A80036;stroke-width:1.0;"/><!--MD5=[f13d90d017f42623a806a422bd885e68]
@startuml
skinparam defaultFontName Segoe UI
skinparam defaultFontSize 20
class com.app.robot.dialogs.HitDialog extends androidx.appcompat.app.AppCompatDialogFragment {
+ <size:15>Dialog onCreateDialog(Bundle)
}
class com.app.robot.fragments.LaserControlFragment extends androidx.fragment.app.Fragment implements android.view.View.OnTouchListener,android.view.View.OnClickListener,android.view.View.OnCheckedChangeListener, com.google.firebase.database.ValueEventListener{
- <size:15>DatabaseReference laser
- <size:15>DatabaseReference laser_ctrl
- <size:15>ToggleButton toggleButton
- <size:15>TextView textView
- <size:15>TextView textViewDirection
- <size:15>TextView xDisplay
- <size:15>int x_angle
- <size:15>int y_angle
+ <size:15>View onCreateView(LayoutInflater,ViewGroup,Bundle)
+ <size:15>boolean onTouch(View,MotionEvent)
+ <size:15>void onCheckedChanged(CompoundButton,boolean)
+ <size:15>void onDataChange(DataSnapshot)
+ <size:15>void onCancelled(DatabaseError)
+ <size:15>void onClick(View)
- <size:15>void initServos(int,int)
- <size:15>void updateDisplay(int,int)
- <size:15>void rotateXServo(boolean,View)
- <size:15>void rotateYServo(boolean,View)
}

class com.app.robot.fragments.MotorsControlFragment extends androidx.fragment.app.Fragment implements android.view.View.OnTouchListener {
- <size:15>TextView speedView
- <size:15>DatabaseReference motorNode
+ <size:15>View onCreateView(LayoutInflater,ViewGroup,Bundle)
+ <size:15>boolean onTouch(View,MotionEvent)
- <size:15>void writeToMotors(boolean,boolean,boolean,boolean)
}
class com.app.robot.main.MainActivity extends androidx.appcompat.app.AppCompatActivity implements com.google.firebase.database.ValueEventListener,com.google.android.material.tabs.TabLayout.OnTabSelectedListener {
- <size:15>DatabaseReference laser_hit
- <size:15>HitDialog hitDialog
- <size:15>ViewPager2 viewPager2
# <size:15>void onCreate(Bundle)
+ <size:15>void onDataChange(DataSnapshot)
+ <size:15>void onCancelled(DatabaseError)
- <size:15>void openDialog()
+ <size:15>void onTabSelected(TabLayout.Tab)
+<size:15> void onTabUnselected(TabLayout.Tab)
+ <size:15>void onTabReselected(TabLayout.Tab)
}
class com.app.robot.adapters.PageViewAdapter extends androidx.viewpager2.adapter.FragmentStateAdapter {
~ <size:15>int numOfFragments
+ <size:15>Fragment createFragment(int)
+ <size:15>int getItemCount()
}

@enduml

PlantUML version 1.2021.00(Sun Jan 10 12:25:05 IST 2021)
(GPL source distribution)
Java Runtime: OpenJDK Runtime Environment
JVM: OpenJDK 64-Bit Server VM
Default Encoding: Cp1255
Language: en
Country: US
--></g></svg>